<svg width="24" height="26" viewBox="0 0 24 26" fill="none" xmlns="http://www.w3.org/2000/svg">
<g clip-path="url(#clip0_80_5331)">
<g clip-path="url(#clip1_80_5331)">
<path fill-rule="evenodd" clip-rule="evenodd" d="M7.94011 24.263C5.67411 23.627 3.30211 23.306 1.00011 23.013C0.50511 22.951 0.0441096 23.295 0.00910956 23.7789C-0.0223389 24.0087 0.0381734 24.2416 0.177492 24.427C0.31681 24.6124 0.523673 24.7353 0.75311 24.7689C2.98311 25.0519 5.28511 25.354 7.44411 25.966C7.67053 26.0275 7.91202 25.9981 8.11712 25.8842C8.32222 25.7702 8.47471 25.5807 8.54211 25.356C8.57453 25.2447 8.58467 25.1281 8.57195 25.0128C8.55923 24.8976 8.52389 24.786 8.46797 24.6845C8.41204 24.583 8.33663 24.4935 8.24605 24.4211C8.15547 24.3488 8.0515 24.295 7.94011 24.263ZM14.8091 15.248C11.1621 11.526 7.05511 8.28395 3.47911 4.46195C3.40097 4.37696 3.30671 4.30835 3.20182 4.26012C3.09693 4.21188 2.98349 4.18498 2.86811 4.18098C2.75272 4.17698 2.6377 4.19596 2.52972 4.23681C2.42173 4.27766 2.32295 4.33958 2.23911 4.41895C2.15272 4.49772 2.0831 4.59309 2.03439 4.69937C1.98569 4.80565 1.9589 4.92065 1.95563 5.03752C1.95237 5.15438 1.97268 5.2707 2.01538 5.37953C2.05807 5.48837 2.12226 5.58748 2.20411 5.67095C5.78011 9.50295 9.88711 12.756 13.5341 16.488C13.7032 16.6558 13.9312 16.7508 14.1694 16.7529C14.4076 16.7549 14.6372 16.6638 14.8091 16.499C15.1271 16.157 15.1631 15.596 14.8091 15.248ZM21.6431 0.932951L21.9611 7.32295C21.9611 7.81195 22.3861 8.18795 22.8811 8.16495C23.3781 8.14095 23.7311 7.72495 23.7311 7.23695L23.4131 0.836951C23.3949 0.600116 23.2846 0.379844 23.1059 0.223374C22.9272 0.0669038 22.6943 -0.0133041 22.4571 -4.86929e-05C22.2262 0.0171368 22.0113 0.124563 21.8589 0.298985C21.7066 0.473406 21.6291 0.700796 21.6431 0.931951V0.932951Z" fill="#167BBC"/>
</g>
</g>
<defs>
<clipPath id="clip0_80_5331">
<rect width="24" height="26" fill="white"/>
</clipPath>
<clipPath id="clip1_80_5331">
<rect width="25" height="26" fill="white" transform="translate(-0.5)"/>
</clipPath>
</defs>
</svg>
