<svg width="22" height="22" viewBox="0 0 22 22" fill="none" xmlns="http://www.w3.org/2000/svg">
<path opacity="0.2" d="M19.7409 9.10173L11.3772 11.4377L9.04128 19.8013C8.99105 19.9653 8.89025 20.1091 8.7533 20.2123C8.61635 20.3154 8.45028 20.3726 8.27885 20.3757C8.10742 20.3787 7.93942 20.3275 7.7989 20.2292C7.65838 20.131 7.55253 19.9908 7.49652 19.8288L0.866515 1.95376C0.817746 1.81037 0.810028 1.6562 0.844232 1.50865C0.878436 1.36111 0.9532 1.22606 1.06009 1.11875C1.16697 1.01144 1.30172 0.936144 1.44914 0.901358C1.59655 0.866572 1.75074 0.873683 1.89433 0.921886L19.7693 7.55189C19.9333 7.60678 20.0754 7.71254 20.1751 7.85378C20.2748 7.99502 20.3269 8.16439 20.3237 8.33724C20.3205 8.5101 20.2623 8.67743 20.1575 8.81492C20.0527 8.95241 19.9067 9.05288 19.7409 9.10173Z" fill="#167BBC"/>
<path d="M20.044 6.78705L2.17711 0.164159L2.16086 0.159081C1.87327 0.0600603 1.56366 0.0437424 1.26725 0.111984C0.970845 0.180225 0.699541 0.330286 0.484202 0.545096C0.268863 0.759906 0.118135 1.03084 0.0491647 1.32708C-0.0198057 1.62332 -0.0042493 1.93297 0.0940636 2.2208C0.0952985 2.22635 0.0969971 2.23178 0.0991416 2.23705L6.72711 20.1039C6.83597 20.4225 7.04244 20.6987 7.3172 20.8932C7.59195 21.0877 7.92102 21.1907 8.25766 21.1876H8.28813C8.63141 21.185 8.96478 21.0721 9.23906 20.8657C9.51335 20.6592 9.71405 20.3701 9.81156 20.041L9.81766 20.0206L12.0358 12.0988L19.9577 9.88064L19.978 9.87455C20.3047 9.77401 20.5914 9.573 20.7973 9.30011C21.0032 9.02722 21.1177 8.69635 21.1247 8.35458C21.1317 8.0128 21.0307 7.67754 20.8361 7.39647C20.6415 7.11541 20.3633 6.90287 20.0409 6.78908L20.044 6.78705ZM11.1583 10.6556C11.0241 10.6932 10.9019 10.7648 10.8034 10.8633C10.7048 10.9618 10.6333 11.0841 10.5956 11.2182L8.25969 19.5626L8.25359 19.5453L1.62766 1.6876L19.4844 8.3115L19.5006 8.3176L11.1583 10.6556Z" fill="#167BBC"/>
</svg>
