<svg width="26" height="26" viewBox="0 0 26 26" fill="none" xmlns="http://www.w3.org/2000/svg">
<path opacity="0.2" d="M21.7341 11.0312L13.3704 13.3671L11.0344 21.7308C10.9842 21.8947 10.8834 22.0386 10.7465 22.1417C10.6095 22.2449 10.4434 22.3021 10.272 22.3051C10.1006 22.3082 9.93259 22.2569 9.79206 22.1587C9.65154 22.0604 9.5457 21.9203 9.48968 21.7582L2.85968 3.8832C2.81091 3.73981 2.80319 3.58564 2.8374 3.4381C2.8716 3.29055 2.94636 3.1555 3.05325 3.04819C3.16014 2.94088 3.29489 2.86559 3.4423 2.8308C3.58971 2.79602 3.74391 2.80313 3.88749 2.85133L21.7625 9.48133C21.9264 9.53623 22.0686 9.64198 22.1683 9.78323C22.268 9.92447 22.32 10.0938 22.3169 10.2667C22.3137 10.4395 22.2555 10.6069 22.1506 10.7444C22.0458 10.8819 21.8999 10.9823 21.7341 11.0312Z" fill="white"/>
<path d="M22.0371 8.71649L4.17027 2.0936L4.15402 2.08852C3.86643 1.9895 3.55682 1.97319 3.26042 2.04143C2.96401 2.10967 2.6927 2.25973 2.47737 2.47454C2.26203 2.68935 2.1113 2.96028 2.04233 3.25652C1.97336 3.55276 1.98891 3.86241 2.08723 4.15024C2.08846 4.15579 2.09016 4.16123 2.09231 4.16649L8.72027 22.0334C8.82913 22.3519 9.0356 22.6281 9.31036 22.8226C9.58511 23.0172 9.91418 23.1202 10.2508 23.117H10.2813C10.6246 23.1144 10.9579 23.0016 11.2322 22.7951C11.5065 22.5887 11.7072 22.2996 11.8047 21.9704L11.8108 21.9501L14.0289 14.0282L21.9508 11.8101L21.9711 11.804C22.2979 11.7035 22.5846 11.5024 22.7904 11.2296C22.9963 10.9567 23.1109 10.6258 23.1179 10.284C23.1248 9.94225 23.0239 9.60698 22.8293 9.32592C22.6347 9.04485 22.3565 8.83231 22.0341 8.71853L22.0371 8.71649ZM13.1514 12.585C13.0173 12.6227 12.8951 12.6942 12.7965 12.7927C12.698 12.8913 12.6265 13.0135 12.5888 13.1477L10.2529 21.492L10.2468 21.4748L3.62082 3.61704L21.4775 10.2409L21.4938 10.247L13.1514 12.585Z" fill="white"/>
</svg>
