<svg width="36" height="36" viewBox="0 0 36 36" fill="none" xmlns="http://www.w3.org/2000/svg">
<path d="M9 30C8.175 30 7.46875 29.7063 6.88125 29.1188C6.29375 28.5312 6 27.825 6 27C6 26.175 6.29375 25.4688 6.88125 24.8813C7.46875 24.2938 8.175 24 9 24C9.825 24 10.5312 24.2938 11.1188 24.8813C11.7063 25.4688 12 26.175 12 27C12 27.825 11.7063 28.5312 11.1188 29.1188C10.5312 29.7063 9.825 30 9 30ZM18 30C17.175 30 16.4688 29.7063 15.8813 29.1188C15.2938 28.5312 15 27.825 15 27C15 26.175 15.2938 25.4688 15.8813 24.8813C16.4688 24.2938 17.175 24 18 24C18.825 24 19.5313 24.2938 20.1188 24.8813C20.7063 25.4688 21 26.175 21 27C21 27.825 20.7063 28.5312 20.1188 29.1188C19.5313 29.7063 18.825 30 18 30ZM27 30C26.175 30 25.4688 29.7063 24.8813 29.1188C24.2938 28.5312 24 27.825 24 27C24 26.175 24.2938 25.4688 24.8813 24.8813C25.4688 24.2938 26.175 24 27 24C27.825 24 28.5312 24.2938 29.1188 24.8813C29.7063 25.4688 30 26.175 30 27C30 27.825 29.7063 28.5312 29.1188 29.1188C28.5312 29.7063 27.825 30 27 30ZM9 21C8.175 21 7.46875 20.7063 6.88125 20.1188C6.29375 19.5313 6 18.825 6 18C6 17.175 6.29375 16.4688 6.88125 15.8813C7.46875 15.2938 8.175 15 9 15C9.825 15 10.5312 15.2938 11.1188 15.8813C11.7063 16.4688 12 17.175 12 18C12 18.825 11.7063 19.5313 11.1188 20.1188C10.5312 20.7063 9.825 21 9 21ZM18 21C17.175 21 16.4688 20.7063 15.8813 20.1188C15.2938 19.5313 15 18.825 15 18C15 17.175 15.2938 16.4688 15.8813 15.8813C16.4688 15.2938 17.175 15 18 15C18.825 15 19.5313 15.2938 20.1188 15.8813C20.7063 16.4688 21 17.175 21 18C21 18.825 20.7063 19.5313 20.1188 20.1188C19.5313 20.7063 18.825 21 18 21ZM27 21C26.175 21 25.4688 20.7063 24.8813 20.1188C24.2938 19.5313 24 18.825 24 18C24 17.175 24.2938 16.4688 24.8813 15.8813C25.4688 15.2938 26.175 15 27 15C27.825 15 28.5312 15.2938 29.1188 15.8813C29.7063 16.4688 30 17.175 30 18C30 18.825 29.7063 19.5313 29.1188 20.1188C28.5312 20.7063 27.825 21 27 21ZM9 12C8.175 12 7.46875 11.7063 6.88125 11.1188C6.29375 10.5312 6 9.825 6 9C6 8.175 6.29375 7.46875 6.88125 6.88125C7.46875 6.29375 8.175 6 9 6C9.825 6 10.5312 6.29375 11.1188 6.88125C11.7063 7.46875 12 8.175 12 9C12 9.825 11.7063 10.5312 11.1188 11.1188C10.5312 11.7063 9.825 12 9 12ZM18 12C17.175 12 16.4688 11.7063 15.8813 11.1188C15.2938 10.5312 15 9.825 15 9C15 8.175 15.2938 7.46875 15.8813 6.88125C16.4688 6.29375 17.175 6 18 6C18.825 6 19.5313 6.29375 20.1188 6.88125C20.7063 7.46875 21 8.175 21 9C21 9.825 20.7063 10.5312 20.1188 11.1188C19.5313 11.7063 18.825 12 18 12ZM27 12C26.175 12 25.4688 11.7063 24.8813 11.1188C24.2938 10.5312 24 9.825 24 9C24 8.175 24.2938 7.46875 24.8813 6.88125C25.4688 6.29375 26.175 6 27 6C27.825 6 28.5312 6.29375 29.1188 6.88125C29.7063 7.46875 30 8.175 30 9C30 9.825 29.7063 10.5312 29.1188 11.1188C28.5312 11.7063 27.825 12 27 12Z" fill="url(#paint0_linear_329_161)"/>
<defs>
<linearGradient id="paint0_linear_329_161" x1="6" y1="18" x2="30" y2="18" gradientUnits="userSpaceOnUse">
<stop stop-color="#035E71"/>
<stop offset="0.283654" stop-color="#5DA9B9"/>
<stop offset="0.769231" stop-color="#035E71"/>
</linearGradient>
</defs>
</svg>
