<svg width="125" height="42" viewBox="0 0 125 42" fill="none" xmlns="http://www.w3.org/2000/svg">
<path fill-rule="evenodd" clip-rule="evenodd" d="M119.96 37.315L119.807 37.213C118.164 36.125 116.525 35.039 114.787 34.089C108.814 30.821 101.914 28.689 95.0776 28.597C94.7912 28.5935 94.5151 28.7036 94.3097 28.9032C94.1043 29.1028 93.9863 29.3756 93.9816 29.662C93.9781 29.9484 94.0884 30.2246 94.2882 30.4298C94.488 30.6351 94.7611 30.7527 95.0476 30.757C101.535 30.841 108.081 32.882 113.748 35.983C115.465 36.923 117.085 37.998 118.709 39.075C119.512 39.608 120.316 40.1409 121.133 40.659L121.302 40.769C121.642 40.993 122.36 41.465 122.571 41.537C123.182 41.748 123.571 41.4459 123.733 41.283C123.869 41.148 124.001 40.9539 124.064 40.673C124.114 40.441 124.106 39.979 123.963 39.364C123.667 38.064 122.821 35.684 122.222 33.998C121.913 33.128 121.669 32.442 121.6 32.184C119.544 24.507 118.752 16.997 117.93 9.21196C117.82 8.16396 117.709 7.11195 117.594 6.05195C117.562 5.76724 117.418 5.50673 117.195 5.32726C116.972 5.14778 116.686 5.06391 116.402 5.09396C116.261 5.10915 116.124 5.152 116 5.22007C115.875 5.28813 115.765 5.38007 115.677 5.49061C115.588 5.60115 115.522 5.72812 115.482 5.86426C115.442 6.00039 115.43 6.14302 115.446 6.28395C115.556 7.30495 115.664 8.32195 115.771 9.33395C116.497 16.207 117.201 22.866 118.738 29.605C108.993 12.636 90.7126 7.53795 72.1236 9.05495C53.8736 10.542 35.3666 18.441 24.5336 27.558C25.0656 26.568 25.5196 25.712 25.7566 25.258C26.1216 24.556 26.6796 23.616 27.3326 22.514C29.2486 19.284 31.9876 14.664 33.1326 10.558C34.3056 6.35795 33.8176 2.68096 30.0666 0.955956C26.6566 -0.611044 22.6246 0.869955 18.6686 4.17196C10.1536 11.282 1.76657 26.687 0.436566 31.994C0.402159 32.1315 0.395184 32.2745 0.416039 32.4148C0.436893 32.555 0.485169 32.6898 0.558109 32.8114C0.63105 32.933 0.727227 33.039 0.841148 33.1235C0.95507 33.2079 1.08451 33.269 1.22207 33.3035C1.35962 33.3379 1.50261 33.3448 1.64287 33.324C1.78313 33.3031 1.9179 33.2548 2.0395 33.1819C2.1611 33.109 2.26714 33.0128 2.35157 32.8989C2.436 32.785 2.49716 32.6555 2.53156 32.518C3.80957 27.425 11.8796 12.653 20.0536 5.82795C23.2486 3.16095 26.4096 1.65195 29.1636 2.91795C31.8826 4.16695 31.9016 6.93295 31.0516 9.97795C29.9436 13.956 27.2776 18.418 25.4046 21.553C24.7546 22.642 24.1996 23.57 23.8386 24.263C23.5486 24.821 22.9686 25.888 22.3156 27.088C20.9956 29.517 19.3756 32.493 19.2616 32.905C19.0466 33.676 19.5556 34.045 19.7316 34.155C19.8676 34.239 20.5756 34.615 21.2066 33.864C30.2066 23.14 51.4446 12.907 72.2966 11.206C92.2626 9.57796 111.925 15.82 119.96 37.315Z" fill="#167BBC"/>
</svg>
