<svg width="24" height="25" viewBox="0 0 24 25" fill="none" xmlns="http://www.w3.org/2000/svg">
<path opacity="0.2" d="M20.25 5.25V9H3.75V5.25C3.75 5.05109 3.82902 4.86032 3.96967 4.71967C4.11032 4.57902 4.30109 4.5 4.5 4.5H19.5C19.6989 4.5 19.8897 4.57902 20.0303 4.71967C20.171 4.86032 20.25 5.05109 20.25 5.25Z" fill="url(#paint0_linear_251_2198)"/>
<path d="M19.5 3.75H17.25V3C17.25 2.80109 17.171 2.61032 17.0303 2.46967C16.8897 2.32902 16.6989 2.25 16.5 2.25C16.3011 2.25 16.1103 2.32902 15.9697 2.46967C15.829 2.61032 15.75 2.80109 15.75 3V3.75H8.25V3C8.25 2.80109 8.17098 2.61032 8.03033 2.46967C7.88968 2.32902 7.69891 2.25 7.5 2.25C7.30109 2.25 7.11032 2.32902 6.96967 2.46967C6.82902 2.61032 6.75 2.80109 6.75 3V3.75H4.5C4.10218 3.75 3.72064 3.90804 3.43934 4.18934C3.15804 4.47064 3 4.85218 3 5.25V20.25C3 20.6478 3.15804 21.0294 3.43934 21.3107C3.72064 21.592 4.10218 21.75 4.5 21.75H19.5C19.8978 21.75 20.2794 21.592 20.5607 21.3107C20.842 21.0294 21 20.6478 21 20.25V5.25C21 4.85218 20.842 4.47064 20.5607 4.18934C20.2794 3.90804 19.8978 3.75 19.5 3.75ZM6.75 5.25V6C6.75 6.19891 6.82902 6.38968 6.96967 6.53033C7.11032 6.67098 7.30109 6.75 7.5 6.75C7.69891 6.75 7.88968 6.67098 8.03033 6.53033C8.17098 6.38968 8.25 6.19891 8.25 6V5.25H15.75V6C15.75 6.19891 15.829 6.38968 15.9697 6.53033C16.1103 6.67098 16.3011 6.75 16.5 6.75C16.6989 6.75 16.8897 6.67098 17.0303 6.53033C17.171 6.38968 17.25 6.19891 17.25 6V5.25H19.5V8.25H4.5V5.25H6.75ZM19.5 20.25H4.5V9.75H19.5V20.25ZM13.5 15C13.5 15.2967 13.412 15.5867 13.2472 15.8334C13.0824 16.08 12.8481 16.2723 12.574 16.3858C12.2999 16.4994 11.9983 16.5291 11.7074 16.4712C11.4164 16.4133 11.1491 16.2704 10.9393 16.0607C10.7296 15.8509 10.5867 15.5836 10.5288 15.2926C10.4709 15.0017 10.5006 14.7001 10.6142 14.426C10.7277 14.1519 10.92 13.9176 11.1666 13.7528C11.4133 13.588 11.7033 13.5 12 13.5C12.3978 13.5 12.7794 13.658 13.0607 13.9393C13.342 14.2206 13.5 14.6022 13.5 15Z" fill="url(#paint1_linear_251_2198)"/>
<defs>
<linearGradient id="paint0_linear_251_2198" x1="3.75" y1="6.75" x2="20.25" y2="6.75" gradientUnits="userSpaceOnUse">
<stop stop-color="#035E71"/>
<stop offset="0.283654" stop-color="#5DA9B9"/>
<stop offset="0.769231" stop-color="#035E71"/>
</linearGradient>
<linearGradient id="paint1_linear_251_2198" x1="3" y1="12" x2="21" y2="12" gradientUnits="userSpaceOnUse">
<stop stop-color="#035E71"/>
<stop offset="0.283654" stop-color="#5DA9B9"/>
<stop offset="0.769231" stop-color="#035E71"/>
</linearGradient>
</defs>
</svg>
