<svg width="26" height="26" viewBox="0 0 26 26" fill="none" xmlns="http://www.w3.org/2000/svg">
<path opacity="0.2" d="M24.375 5.6875V18.6875C24.375 19.1185 24.2038 19.5318 23.899 19.8365C23.5943 20.1413 23.181 20.3125 22.75 20.3125H7.3125V15.4375H13V10.5625H18.6875V5.6875H24.375Z" fill="white"/>
<path d="M25.1875 5.6875C25.1875 5.90299 25.1019 6.10965 24.9495 6.26202C24.7972 6.4144 24.5905 6.5 24.375 6.5H19.5V10.5625C19.5 10.778 19.4144 10.9847 19.262 11.137C19.1097 11.2894 18.903 11.375 18.6875 11.375H13.8125V15.4375C13.8125 15.653 13.7269 15.8597 13.5745 16.012C13.4222 16.1644 13.2155 16.25 13 16.25H8.125V20.3125C8.125 20.528 8.0394 20.7347 7.88702 20.887C7.73465 21.0394 7.52799 21.125 7.3125 21.125H1.625C1.40951 21.125 1.20285 21.0394 1.05048 20.887C0.898102 20.7347 0.8125 20.528 0.8125 20.3125C0.8125 20.097 0.898102 19.8903 1.05048 19.738C1.20285 19.5856 1.40951 19.5 1.625 19.5H6.5V15.4375C6.5 15.222 6.5856 15.0153 6.73798 14.863C6.89035 14.7106 7.09701 14.625 7.3125 14.625H12.1875V10.5625C12.1875 10.347 12.2731 10.1403 12.4255 9.98798C12.5778 9.8356 12.7845 9.75 13 9.75H17.875V5.6875C17.875 5.47201 17.9606 5.26535 18.113 5.11298C18.2653 4.9606 18.472 4.875 18.6875 4.875H24.375C24.5905 4.875 24.7972 4.9606 24.9495 5.11298C25.1019 5.26535 25.1875 5.47201 25.1875 5.6875Z" fill="white"/>
</svg>
