<svg width="27" height="26" viewBox="0 0 27 26" fill="none" xmlns="http://www.w3.org/2000/svg">
<path opacity="0.2" d="M24.6846 5.6875V18.6875C24.6846 19.1185 24.5134 19.5318 24.2086 19.8365C23.9039 20.1413 23.4905 20.3125 23.0596 20.3125H7.62207V15.4375H13.3096V10.5625H18.9971V5.6875H24.6846Z" fill="#34A770"/>
<path d="M25.4971 5.6875C25.4971 5.90299 25.4115 6.10965 25.2591 6.26202C25.1067 6.4144 24.9001 6.5 24.6846 6.5H19.8096V10.5625C19.8096 10.778 19.724 10.9847 19.5716 11.137C19.4192 11.2894 19.2126 11.375 18.9971 11.375H14.1221V15.4375C14.1221 15.653 14.0365 15.8597 13.8841 16.012C13.7317 16.1644 13.5251 16.25 13.3096 16.25H8.43457V20.3125C8.43457 20.528 8.34897 20.7347 8.19659 20.887C8.04422 21.0394 7.83756 21.125 7.62207 21.125H1.93457C1.71908 21.125 1.51242 21.0394 1.36005 20.887C1.20767 20.7347 1.12207 20.528 1.12207 20.3125C1.12207 20.097 1.20767 19.8903 1.36005 19.738C1.51242 19.5856 1.71908 19.5 1.93457 19.5H6.80957V15.4375C6.80957 15.222 6.89517 15.0153 7.04755 14.863C7.19992 14.7106 7.40658 14.625 7.62207 14.625H12.4971V10.5625C12.4971 10.347 12.5827 10.1403 12.735 9.98798C12.8874 9.8356 13.0941 9.75 13.3096 9.75H18.1846V5.6875C18.1846 5.47201 18.2702 5.26535 18.4225 5.11298C18.5749 4.9606 18.7816 4.875 18.9971 4.875H24.6846C24.9001 4.875 25.1067 4.9606 25.2591 5.11298C25.4115 5.26535 25.4971 5.47201 25.4971 5.6875Z" fill="#34A770"/>
</svg>
