<svg width="25" height="25" viewBox="0 0 25 25" fill="none" xmlns="http://www.w3.org/2000/svg">
<rect width="25" height="25" rx="8" fill="url(#paint0_linear_80_6511)"/>
<path d="M17.8057 10.0874L11.3057 16.5874C11.2491 16.6443 11.1819 16.6893 11.1078 16.7201C11.0337 16.7508 10.9543 16.7667 10.8741 16.7667C10.7939 16.7667 10.7145 16.7508 10.6404 16.7201C10.5663 16.6893 10.4991 16.6443 10.4425 16.5874L7.59871 13.7437C7.54203 13.687 7.49707 13.6197 7.46639 13.5457C7.43571 13.4716 7.41992 13.3922 7.41992 13.3121C7.41992 13.2319 7.43571 13.1525 7.46639 13.0785C7.49707 13.0044 7.54203 12.9371 7.59871 12.8804C7.6554 12.8237 7.72269 12.7788 7.79675 12.7481C7.87081 12.7174 7.95019 12.7016 8.03035 12.7016C8.11052 12.7016 8.1899 12.7174 8.26396 12.7481C8.33802 12.7788 8.40531 12.8237 8.46199 12.8804L10.8746 15.293L16.9435 9.22518C17.058 9.1107 17.2132 9.04639 17.3751 9.04639C17.537 9.04639 17.6923 9.1107 17.8068 9.22518C17.9212 9.33966 17.9856 9.49492 17.9856 9.65682C17.9856 9.81872 17.9212 9.97398 17.8068 10.0885L17.8057 10.0874Z" fill="white"/>
<defs>
<linearGradient id="paint0_linear_80_6511" x1="0" y1="12.5" x2="25" y2="12.5" gradientUnits="userSpaceOnUse">
<stop stop-color="#035E71"/>
<stop offset="0.283654" stop-color="#5DA9B9"/>
<stop offset="0.769231" stop-color="#035E71"/>
</linearGradient>
</defs>
</svg>
