<svg width="11" height="14" viewBox="0 0 11 14" fill="none" xmlns="http://www.w3.org/2000/svg">
<path opacity="0.2" d="M0.8125 8.4375C0.8125 9.6807 1.30636 10.873 2.18544 11.7521C3.06451 12.6311 4.2568 13.125 5.5 13.125C6.7432 13.125 7.93549 12.6311 8.81456 11.7521C9.69364 10.873 10.1875 9.6807 10.1875 8.4375C10.1875 6.64629 9.34258 5.02383 8.37109 3.75L6.4375 5.625L4.89824 1.40625C3.6332 2.45625 0.8125 5.16504 0.8125 8.4375Z" fill="#167BBC"/>
<path d="M4.59883 1.04593C4.65661 0.997883 4.7251 0.964438 4.79852 0.948409C4.87194 0.93238 4.94814 0.934238 5.02069 0.953826C5.09324 0.973414 5.16001 1.01016 5.21539 1.06096C5.27076 1.11176 5.31311 1.17513 5.33887 1.24573L6.62793 4.78538L8.04355 3.4137C8.0911 3.36759 8.14787 3.33208 8.21013 3.3095C8.2724 3.28693 8.33874 3.2778 8.40478 3.28273C8.47083 3.28766 8.53508 3.30652 8.59331 3.33809C8.65153 3.36965 8.7024 3.41319 8.74258 3.46585C10.0117 5.12874 10.6562 6.80159 10.6562 8.43753C10.6562 9.80505 10.113 11.1166 9.14602 12.0835C8.17903 13.0505 6.86752 13.5938 5.5 13.5938C4.13248 13.5938 2.82096 13.0505 1.85398 12.0835C0.886996 11.1166 0.34375 9.80505 0.34375 8.43753C0.34375 4.95413 3.31973 2.1094 4.59883 1.04593ZM5.5 12.6563C6.6185 12.655 7.69084 12.2102 8.48174 11.4193C9.27264 10.6284 9.71751 9.55603 9.71875 8.43753C9.71875 7.14846 9.24473 5.81311 8.30898 4.46253L6.76387 5.96136C6.70775 6.01585 6.63889 6.05544 6.56356 6.07651C6.48823 6.09758 6.40883 6.09946 6.33258 6.08199C6.25634 6.06452 6.18568 6.02824 6.12704 5.97647C6.0684 5.92469 6.02366 5.85907 5.99688 5.78557L4.69199 2.20725C3.37832 3.40315 1.28125 5.73694 1.28125 8.43753C1.28249 9.55603 1.72736 10.6284 2.51826 11.4193C3.30916 12.2102 4.3815 12.655 5.5 12.6563Z" fill="#167BBC"/>
</svg>
