<svg width="23" height="25" viewBox="0 0 23 25" fill="none" xmlns="http://www.w3.org/2000/svg">
<path opacity="0.2" d="M15.8125 3.06006H7.1875C6.04375 3.06006 4.94685 3.53416 4.1381 4.37808C3.32935 5.22199 2.875 6.36658 2.875 7.56006V16.5601C2.875 17.7535 3.32935 18.8981 4.1381 19.742C4.94685 20.586 6.04375 21.0601 7.1875 21.0601H15.8125C16.9562 21.0601 18.0531 20.586 18.8619 19.742C19.6706 18.8981 20.125 17.7535 20.125 16.5601V7.56006C20.125 6.36658 19.6706 5.22199 18.8619 4.37808C18.0531 3.53416 16.9562 3.06006 15.8125 3.06006ZM11.5 15.8101C10.7892 15.8101 10.0944 15.5901 9.50342 15.1781C8.91243 14.766 8.45181 14.1803 8.17981 13.4951C7.9078 12.8099 7.83664 12.0559 7.9753 11.3285C8.11397 10.601 8.45624 9.93286 8.95884 9.40841C9.46143 8.88396 10.1018 8.52681 10.7989 8.38211C11.496 8.23742 12.2186 8.31168 12.8753 8.59551C13.5319 8.87934 14.0932 9.35999 14.4881 9.97667C14.883 10.5934 15.0938 11.3184 15.0938 12.0601C15.0938 13.0546 14.7151 14.0084 14.0412 14.7117C13.3672 15.415 12.4531 15.8101 11.5 15.8101Z" fill="#C2C2C2"/>
<path d="M15.8125 2.31006H7.1875C5.85357 2.31155 4.57468 2.86515 3.63145 3.84939C2.68821 4.83364 2.15768 6.16813 2.15625 7.56006V16.5601C2.15768 17.952 2.68821 19.2865 3.63145 20.2707C4.57468 21.255 5.85357 21.8086 7.1875 21.8101H15.8125C17.1464 21.8086 18.4253 21.255 19.3686 20.2707C20.3118 19.2865 20.8423 17.952 20.8438 16.5601V7.56006C20.8423 6.16813 20.3118 4.83364 19.3686 3.84939C18.4253 2.86515 17.1464 2.31155 15.8125 2.31006ZM19.4062 16.5601C19.4062 17.5546 19.0276 18.5084 18.3537 19.2117C17.6797 19.915 16.7656 20.3101 15.8125 20.3101H7.1875C6.23438 20.3101 5.32029 19.915 4.64634 19.2117C3.97238 18.5084 3.59375 17.5546 3.59375 16.5601V7.56006C3.59375 6.5655 3.97238 5.61167 4.64634 4.90841C5.32029 4.20515 6.23438 3.81006 7.1875 3.81006H15.8125C16.7656 3.81006 17.6797 4.20515 18.3537 4.90841C19.0276 5.61167 19.4062 6.5655 19.4062 7.56006V16.5601ZM11.5 7.56006C10.6471 7.56006 9.81329 7.82398 9.1041 8.31845C8.39492 8.81291 7.84217 9.51572 7.51577 10.338C7.18937 11.1603 7.10396 12.0651 7.27036 12.938C7.43676 13.8109 7.84749 14.6127 8.4506 15.242C9.05372 15.8714 9.82213 16.3 10.6587 16.4736C11.4952 16.6472 12.3623 16.5581 13.1503 16.2175C13.9383 15.8769 14.6118 15.3001 15.0857 14.5601C15.5596 13.8201 15.8125 12.9501 15.8125 12.0601C15.8113 10.867 15.3566 9.72309 14.5481 8.87945C13.7396 8.0358 12.6434 7.5613 11.5 7.56006ZM11.5 15.0601C10.9314 15.0601 10.3755 14.8841 9.90274 14.5545C9.42994 14.2248 9.06145 13.7563 8.84385 13.2081C8.62624 12.6599 8.56931 12.0567 8.68024 11.4748C8.79117 10.8928 9.06499 10.3583 9.46707 9.93874C9.86914 9.51918 10.3814 9.23346 10.9391 9.1177C11.4968 9.00195 12.0749 9.06136 12.6002 9.28842C13.1256 9.51548 13.5746 9.9 13.8905 10.3933C14.2064 10.8867 14.375 11.4667 14.375 12.0601C14.375 12.8557 14.0721 13.6188 13.5329 14.1814C12.9938 14.744 12.2625 15.0601 11.5 15.0601ZM17.25 7.18506C17.25 7.40756 17.1868 7.62507 17.0683 7.81007C16.9498 7.99508 16.7815 8.13927 16.5845 8.22442C16.3875 8.30957 16.1707 8.33185 15.9615 8.28844C15.7524 8.24503 15.5603 8.13789 15.4095 7.98055C15.2587 7.82322 15.1561 7.62276 15.1145 7.40454C15.0729 7.18631 15.0942 6.96011 15.1758 6.75454C15.2574 6.54897 15.3956 6.37327 15.5729 6.24966C15.7502 6.12604 15.9586 6.06006 16.1719 6.06006C16.4578 6.06006 16.732 6.17858 16.9342 6.38956C17.1364 6.60054 17.25 6.88669 17.25 7.18506Z" fill="#C2C2C2"/>
</svg>
