<svg width="20" height="20" viewBox="0 0 20 20" fill="none" xmlns="http://www.w3.org/2000/svg">
<path opacity="0.2" d="M19 1.81006V18.3101C19 18.509 18.921 18.6997 18.7803 18.8404C18.6397 18.981 18.4489 19.0601 18.25 19.0601H1.75C1.55109 19.0601 1.36032 18.981 1.21967 18.8404C1.07902 18.6997 1 18.509 1 18.3101V1.81006C1 1.61115 1.07902 1.42038 1.21967 1.27973C1.36032 1.13908 1.55109 1.06006 1.75 1.06006H18.25C18.4489 1.06006 18.6397 1.13908 18.7803 1.27973C18.921 1.42038 19 1.61115 19 1.81006Z" fill="#C2C2C2"/>
<path d="M18.25 0.310059H1.75C1.35218 0.310059 0.970644 0.468094 0.68934 0.749398C0.408035 1.0307 0.25 1.41223 0.25 1.81006V18.3101C0.25 18.7079 0.408035 19.0894 0.68934 19.3707C0.970644 19.652 1.35218 19.8101 1.75 19.8101H18.25C18.6478 19.8101 19.0294 19.652 19.3107 19.3707C19.592 19.0894 19.75 18.7079 19.75 18.3101V1.81006C19.75 1.41223 19.592 1.0307 19.3107 0.749398C19.0294 0.468094 18.6478 0.310059 18.25 0.310059ZM18.25 18.3101H1.75V1.81006H18.25V18.3101ZM7 8.56006V14.5601C7 14.759 6.92098 14.9497 6.78033 15.0904C6.63968 15.231 6.44891 15.3101 6.25 15.3101C6.05109 15.3101 5.86032 15.231 5.71967 15.0904C5.57902 14.9497 5.5 14.759 5.5 14.5601V8.56006C5.5 8.36115 5.57902 8.17038 5.71967 8.02973C5.86032 7.88908 6.05109 7.81006 6.25 7.81006C6.44891 7.81006 6.63968 7.88908 6.78033 8.02973C6.92098 8.17038 7 8.36115 7 8.56006ZM15.25 11.1851V14.5601C15.25 14.759 15.171 14.9497 15.0303 15.0904C14.8897 15.231 14.6989 15.3101 14.5 15.3101C14.3011 15.3101 14.1103 15.231 13.9697 15.0904C13.829 14.9497 13.75 14.759 13.75 14.5601V11.1851C13.75 10.6878 13.5525 10.2109 13.2008 9.85923C12.8492 9.5076 12.3723 9.31006 11.875 9.31006C11.3777 9.31006 10.9008 9.5076 10.5492 9.85923C10.1975 10.2109 10 10.6878 10 11.1851V14.5601C10 14.759 9.92098 14.9497 9.78033 15.0904C9.63968 15.231 9.44891 15.3101 9.25 15.3101C9.05109 15.3101 8.86032 15.231 8.71967 15.0904C8.57902 14.9497 8.5 14.759 8.5 14.5601V8.56006C8.50093 8.37635 8.56925 8.19937 8.69201 8.0627C8.81477 7.92602 8.98342 7.83916 9.16598 7.81858C9.34853 7.798 9.53229 7.84514 9.68239 7.95105C9.8325 8.05697 9.93851 8.21429 9.98031 8.39318C10.4877 8.049 11.0792 7.84952 11.6914 7.81617C12.3036 7.78282 12.9133 7.91685 13.455 8.20387C13.9968 8.49089 14.4501 8.92005 14.7664 9.44529C15.0826 9.97052 15.2498 10.572 15.25 11.1851ZM7.375 5.93506C7.375 6.15756 7.30902 6.37507 7.1854 6.56007C7.06179 6.74508 6.88609 6.88927 6.68052 6.97442C6.47495 7.05957 6.24875 7.08185 6.03052 7.03844C5.81229 6.99503 5.61184 6.88789 5.4545 6.73055C5.29717 6.57322 5.19002 6.37276 5.14662 6.15454C5.10321 5.93631 5.12549 5.71011 5.21064 5.50454C5.29578 5.29897 5.43998 5.12327 5.62498 4.99965C5.80999 4.87604 6.0275 4.81006 6.25 4.81006C6.54837 4.81006 6.83452 4.92859 7.0455 5.13956C7.25647 5.35054 7.375 5.63669 7.375 5.93506Z" fill="#C2C2C2"/>
</svg>
