<svg width="26" height="26" viewBox="0 0 26 26" fill="none" xmlns="http://www.w3.org/2000/svg">
<path opacity="0.2" d="M17.0625 14.625C17.0625 15.4285 16.8242 16.2139 16.3778 16.882C15.9315 17.5501 15.297 18.0708 14.5547 18.3783C13.8123 18.6857 12.9955 18.7662 12.2074 18.6094C11.4194 18.4527 10.6955 18.0658 10.1274 17.4976C9.55923 16.9295 9.17231 16.2056 9.01556 15.4176C8.85881 14.6295 8.93926 13.8127 9.24674 13.0703C9.55422 12.328 10.0749 11.6935 10.743 11.2472C11.4111 10.8008 12.1965 10.5625 13 10.5625C14.0774 10.5625 15.1108 10.9905 15.8726 11.7524C16.6345 12.5142 17.0625 13.5476 17.0625 14.625ZM6.5 5.6875C5.85721 5.6875 5.22886 5.87811 4.6944 6.23522C4.15994 6.59234 3.74338 7.09992 3.49739 7.69378C3.25141 8.28764 3.18705 8.94111 3.31245 9.57154C3.43785 10.202 3.74738 10.7811 4.2019 11.2356C4.65642 11.6901 5.23552 11.9997 5.86596 12.1251C6.4964 12.2505 7.14986 12.1861 7.74372 11.9401C8.33758 11.6941 8.84516 11.2776 9.20228 10.7431C9.55939 10.2086 9.75 9.58029 9.75 8.9375C9.75 8.07555 9.40759 7.2489 8.7981 6.6394C8.18861 6.02991 7.36196 5.6875 6.5 5.6875ZM19.5 5.6875C18.8572 5.6875 18.2289 5.87811 17.6944 6.23522C17.1599 6.59234 16.7434 7.09992 16.4974 7.69378C16.2514 8.28764 16.187 8.94111 16.3124 9.57154C16.4379 10.202 16.7474 10.7811 17.2019 11.2356C17.6564 11.6901 18.2355 11.9997 18.866 12.1251C19.4964 12.2505 20.1499 12.1861 20.7437 11.9401C21.3376 11.6941 21.8452 11.2776 22.2023 10.7431C22.5594 10.2086 22.75 9.58029 22.75 8.9375C22.75 8.07555 22.4076 7.2489 21.7981 6.6394C21.1886 6.02991 20.362 5.6875 19.5 5.6875Z" fill="white"/>
<path d="M24.8628 15.2751C24.7774 15.3391 24.6803 15.3857 24.577 15.4122C24.4736 15.4387 24.366 15.4445 24.2604 15.4294C24.1548 15.4143 24.0532 15.3786 23.9613 15.3242C23.8695 15.2699 23.7893 15.198 23.7253 15.1126C23.2356 14.4543 22.5982 13.9202 21.8643 13.5533C21.1305 13.1864 20.3208 12.9969 19.5003 13.0001C19.2848 13.0001 19.0782 12.9145 18.9258 12.7621C18.7734 12.6098 18.6878 12.4031 18.6878 12.1876C18.6878 11.9721 18.7734 11.7654 18.9258 11.6131C19.0782 11.4607 19.2848 11.3751 19.5003 11.3751C19.9562 11.3751 20.4029 11.2472 20.7898 11.006C21.1766 10.7648 21.4881 10.4199 21.6887 10.0105C21.8894 9.6012 21.9713 9.14379 21.925 8.69026C21.8788 8.23672 21.7062 7.80525 21.427 7.44486C21.1479 7.08446 20.7732 6.80958 20.3456 6.65144C19.918 6.49331 19.4547 6.45825 19.0082 6.55025C18.5617 6.64226 18.1499 6.85764 17.8197 7.17193C17.4894 7.48621 17.254 7.88682 17.14 8.32822C17.1133 8.43159 17.0665 8.52869 17.0023 8.61398C16.9381 8.69926 16.8578 8.77107 16.7658 8.8253C16.6739 8.87953 16.5721 8.91511 16.4664 8.93003C16.3607 8.94494 16.2531 8.93888 16.1498 8.91221C16.0464 8.88553 15.9493 8.83876 15.864 8.77456C15.7787 8.71036 15.7069 8.62999 15.6527 8.53804C15.5985 8.44609 15.5629 8.34435 15.548 8.23865C15.533 8.13295 15.5391 8.02534 15.5658 7.92197C15.724 7.30987 16.0228 6.74314 16.4386 6.26686C16.8544 5.79059 17.3755 5.41792 17.9607 5.17852C18.5458 4.93911 19.1787 4.83958 19.8091 4.88783C20.4395 4.93608 21.0499 5.13078 21.5918 5.45646C22.1336 5.78213 22.592 6.22977 22.9305 6.76377C23.2689 7.29778 23.478 7.9034 23.5412 8.53244C23.6044 9.16149 23.5199 9.79661 23.2944 10.3873C23.069 10.9779 22.7088 11.5078 22.2425 11.9347C23.3473 12.4131 24.3077 13.1722 25.0284 14.1366C25.0924 14.2222 25.1389 14.3195 25.1652 14.4231C25.1915 14.5267 25.1972 14.6344 25.1818 14.7402C25.1664 14.8459 25.1303 14.9476 25.0756 15.0394C25.0209 15.1312 24.9485 15.2113 24.8628 15.2751ZM19.3906 21.5313C19.4473 21.6238 19.485 21.7268 19.5013 21.834C19.5176 21.9413 19.5122 22.0507 19.4856 22.1559C19.4589 22.2611 19.4114 22.3598 19.3459 22.4464C19.2805 22.5329 19.1983 22.6054 19.1044 22.6597C19.0104 22.714 18.9066 22.7489 18.7989 22.7623C18.6912 22.7758 18.582 22.7676 18.4776 22.7381C18.3731 22.7087 18.2756 22.6587 18.1909 22.5909C18.1061 22.5232 18.0358 22.4392 17.984 22.3438C17.4721 21.4774 16.7432 20.7594 15.8691 20.2606C14.9951 19.7618 14.0061 19.4995 12.9998 19.4995C11.9935 19.4995 11.0045 19.7618 10.1305 20.2606C9.25642 20.7594 8.52751 21.4774 8.01562 22.3438C7.96483 22.4409 7.89492 22.5268 7.8101 22.5961C7.72528 22.6655 7.6273 22.717 7.52206 22.7476C7.41682 22.7781 7.30648 22.787 7.1977 22.7738C7.08892 22.7606 6.98394 22.7255 6.88907 22.6707C6.79419 22.6158 6.7114 22.5424 6.64565 22.4547C6.57991 22.367 6.53258 22.267 6.50651 22.1605C6.48044 22.0541 6.47616 21.9435 6.49395 21.8354C6.51173 21.7272 6.55121 21.6238 6.61 21.5313C7.39771 20.1779 8.59879 19.1128 10.0367 18.4926C9.22759 17.8731 8.63295 17.0156 8.33636 16.0407C8.03976 15.0658 8.05614 14.0224 8.38319 13.0573C8.71024 12.0921 9.33151 11.2538 10.1597 10.66C10.9878 10.0662 11.9813 9.74685 13.0003 9.74685C14.0194 9.74685 15.0128 10.0662 15.8409 10.66C16.6691 11.2538 17.2904 12.0921 17.6174 13.0573C17.9445 14.0224 17.9609 15.0658 17.6643 16.0407C17.3677 17.0156 16.773 17.8731 15.9639 18.4926C17.4018 19.1128 18.6029 20.1779 19.3906 21.5313ZM13.0003 17.8751C13.6431 17.8751 14.2715 17.6845 14.8059 17.3274C15.3404 16.9703 15.7569 16.4627 16.0029 15.8688C16.2489 15.275 16.3133 14.6215 16.1879 13.9911C16.0625 13.3606 15.7529 12.7815 15.2984 12.327C14.8439 11.8725 14.2648 11.5629 13.6344 11.4375C13.0039 11.3121 12.3504 11.3765 11.7566 11.6225C11.1627 11.8685 10.6551 12.285 10.298 12.8195C9.94092 13.354 9.75031 13.9823 9.75031 14.6251C9.75031 15.4871 10.0927 16.3137 10.7022 16.9232C11.3117 17.5327 12.1384 17.8751 13.0003 17.8751ZM7.31281 12.1876C7.31281 11.9721 7.22721 11.7654 7.07483 11.6131C6.92246 11.4607 6.7158 11.3751 6.50031 11.3751C6.04442 11.3751 5.59768 11.2472 5.21084 11.006C4.82399 10.7648 4.51254 10.4199 4.31187 10.0105C4.1112 9.6012 4.02934 9.14379 4.0756 8.69026C4.12186 8.23672 4.29439 7.80525 4.57357 7.44486C4.85276 7.08446 5.22742 6.80958 5.655 6.65144C6.08258 6.49331 6.54594 6.45825 6.99245 6.55025C7.43895 6.64226 7.85071 6.85764 8.18094 7.17193C8.51117 7.48621 8.74665 7.88682 8.86062 8.32822C8.91449 8.53698 9.04909 8.71578 9.23479 8.8253C9.4205 8.93482 9.6421 8.96608 9.85086 8.91221C10.0596 8.85834 10.2384 8.72374 10.3479 8.53804C10.4575 8.35233 10.4887 8.13073 10.4348 7.92197C10.2766 7.30987 9.97778 6.74314 9.56202 6.26686C9.14626 5.79059 8.62508 5.41792 8.03995 5.17852C7.45482 4.93911 6.82188 4.83958 6.19152 4.88783C5.56115 4.93608 4.95074 5.13078 4.40886 5.45646C3.86698 5.78213 3.40859 6.22977 3.07016 6.76377C2.73173 7.29778 2.5226 7.9034 2.45941 8.53244C2.39622 9.16149 2.48072 9.79661 2.70618 10.3873C2.93164 10.9779 3.29184 11.5078 3.75812 11.9347C2.65442 12.4135 1.6951 13.1726 0.975308 14.1366C0.84588 14.309 0.790236 14.5257 0.820615 14.7391C0.850994 14.9526 0.96491 15.1452 1.1373 15.2746C1.30969 15.404 1.52644 15.4597 1.73985 15.4293C1.95327 15.3989 2.14588 15.285 2.27531 15.1126C2.76503 14.4543 3.40246 13.9202 4.1363 13.5533C4.87013 13.1864 5.67986 12.9969 6.50031 13.0001C6.7158 13.0001 6.92246 12.9145 7.07483 12.7621C7.22721 12.6098 7.31281 12.4031 7.31281 12.1876Z" fill="white"/>
</svg>
