<svg width="27" height="26" viewBox="0 0 27 26" fill="none" xmlns="http://www.w3.org/2000/svg">
<path opacity="0.2" d="M17.5029 14.625C17.5029 15.4285 17.2647 16.2139 16.8183 16.882C16.3719 17.5501 15.7374 18.0708 14.9951 18.3783C14.2528 18.6857 13.4359 18.7662 12.6479 18.6094C11.8598 18.4527 11.136 18.0658 10.5678 17.4976C9.99966 16.9295 9.61274 16.2056 9.45599 15.4176C9.29924 14.6295 9.37969 13.8127 9.68717 13.0703C9.99465 12.328 10.5154 11.6935 11.1834 11.2472C11.8515 10.8008 12.6369 10.5625 13.4404 10.5625C14.5179 10.5625 15.5512 10.9905 16.3131 11.7524C17.0749 12.5142 17.5029 13.5476 17.5029 14.625ZM6.94043 5.6875C6.29764 5.6875 5.66929 5.87811 5.13483 6.23522C4.60037 6.59234 4.18381 7.09992 3.93782 7.69378C3.69184 8.28764 3.62748 8.94111 3.75288 9.57154C3.87828 10.202 4.18781 10.7811 4.64233 11.2356C5.09685 11.6901 5.67595 11.9997 6.30639 12.1251C6.93683 12.2505 7.59029 12.1861 8.18415 11.9401C8.77801 11.6941 9.28559 11.2776 9.64271 10.7431C9.99982 10.2086 10.1904 9.58029 10.1904 8.9375C10.1904 8.07555 9.84802 7.2489 9.23853 6.6394C8.62903 6.02991 7.80238 5.6875 6.94043 5.6875ZM19.9404 5.6875C19.2976 5.6875 18.6693 5.87811 18.1348 6.23522C17.6004 6.59234 17.1838 7.09992 16.9378 7.69378C16.6918 8.28764 16.6275 8.94111 16.7529 9.57154C16.8783 10.202 17.1878 10.7811 17.6423 11.2356C18.0969 11.6901 18.6759 11.9997 19.3064 12.1251C19.9368 12.2505 20.5903 12.1861 21.1842 11.9401C21.778 11.6941 22.2856 11.2776 22.6427 10.7431C22.9998 10.2086 23.1904 9.58029 23.1904 8.9375C23.1904 8.07555 22.848 7.2489 22.2385 6.6394C21.629 6.02991 20.8024 5.6875 19.9404 5.6875Z" fill="#78A1B6"/>
<path d="M25.3032 15.2751C25.2179 15.3391 25.1207 15.3857 25.0174 15.4122C24.914 15.4387 24.8065 15.4445 24.7008 15.4294C24.5952 15.4143 24.4936 15.3786 24.4018 15.3242C24.31 15.2699 24.2298 15.198 24.1657 15.1126C23.676 14.4543 23.0386 13.9202 22.3047 13.5533C21.5709 13.1864 20.7612 12.9969 19.9407 13.0001C19.7253 13.0001 19.5186 12.9145 19.3662 12.7621C19.2138 12.6098 19.1282 12.4031 19.1282 12.1876C19.1282 11.9721 19.2138 11.7654 19.3662 11.6131C19.5186 11.4607 19.7253 11.3751 19.9407 11.3751C20.3966 11.3751 20.8434 11.2472 21.2302 11.006C21.6171 10.7648 21.9285 10.4199 22.1292 10.0105C22.3298 9.6012 22.4117 9.14379 22.3654 8.69026C22.3192 8.23672 22.1467 7.80525 21.8675 7.44486C21.5883 7.08446 21.2136 6.80958 20.786 6.65144C20.3585 6.49331 19.8951 6.45825 19.4486 6.55025C19.0021 6.64226 18.5903 6.85764 18.2601 7.17193C17.9299 7.48621 17.6944 7.88682 17.5804 8.32822C17.5538 8.43159 17.507 8.52869 17.4428 8.61398C17.3786 8.69926 17.2982 8.77107 17.2063 8.8253C17.1143 8.87953 17.0126 8.91511 16.9069 8.93003C16.8012 8.94494 16.6936 8.93888 16.5902 8.91221C16.4868 8.88553 16.3897 8.83876 16.3044 8.77456C16.2192 8.71036 16.1473 8.62999 16.0931 8.53804C16.0389 8.44609 16.0033 8.34435 15.9884 8.23865C15.9735 8.13295 15.9795 8.02534 16.0062 7.92197C16.1644 7.30987 16.4633 6.74314 16.879 6.26686C17.2948 5.79059 17.816 5.41792 18.4011 5.17852C18.9862 4.93911 19.6192 4.83958 20.2495 4.88783C20.8799 4.93608 21.4903 5.13078 22.0322 5.45646C22.5741 5.78213 23.0325 6.22977 23.3709 6.76377C23.7093 7.29778 23.9184 7.9034 23.9816 8.53244C24.0448 9.16149 23.9603 9.79661 23.7349 10.3873C23.5094 10.9779 23.1492 11.5078 22.6829 11.9347C23.7877 12.4131 24.7482 13.1722 25.4688 14.1366C25.5328 14.2222 25.5793 14.3195 25.6056 14.4231C25.632 14.5267 25.6376 14.6344 25.6222 14.7402C25.6068 14.8459 25.5708 14.9476 25.516 15.0394C25.4613 15.1312 25.389 15.2113 25.3032 15.2751ZM19.8311 21.5313C19.8878 21.6238 19.9254 21.7268 19.9417 21.834C19.958 21.9413 19.9527 22.0507 19.926 22.1559C19.8993 22.2611 19.8518 22.3598 19.7864 22.4464C19.7209 22.5329 19.6388 22.6054 19.5448 22.6597C19.4509 22.714 19.347 22.7489 19.2393 22.7623C19.1317 22.7758 19.0224 22.7676 18.918 22.7381C18.8136 22.7087 18.7161 22.6587 18.6313 22.5909C18.5465 22.5232 18.4762 22.4392 18.4244 22.3438C17.9125 21.4774 17.1836 20.7594 16.3096 20.2606C15.4355 19.7618 14.4466 19.4995 13.4402 19.4995C12.4339 19.4995 11.4449 19.7618 10.5709 20.2606C9.69685 20.7594 8.96794 21.4774 8.45605 22.3438C8.40526 22.4409 8.33535 22.5268 8.25053 22.5961C8.16571 22.6655 8.06773 22.717 7.96249 22.7476C7.85724 22.7781 7.74691 22.787 7.63813 22.7738C7.52935 22.7606 7.42437 22.7255 7.3295 22.6707C7.23462 22.6158 7.15183 22.5424 7.08608 22.4547C7.02034 22.367 6.97301 22.267 6.94694 22.1605C6.92087 22.0541 6.91659 21.9435 6.93438 21.8354C6.95216 21.7272 6.99164 21.6238 7.05043 21.5313C7.83814 20.1779 9.03922 19.1128 10.4771 18.4926C9.66802 17.8731 9.07338 17.0156 8.77679 16.0407C8.48019 15.0658 8.49657 14.0224 8.82362 13.0573C9.15067 12.0921 9.77194 11.2538 10.6001 10.66C11.4283 10.0662 12.4217 9.74685 13.4407 9.74685C14.4598 9.74685 15.4532 10.0662 16.2814 10.66C17.1095 11.2538 17.7308 12.0921 18.0579 13.0573C18.3849 14.0224 18.4013 15.0658 18.1047 16.0407C17.8081 17.0156 17.2135 17.8731 16.4043 18.4926C17.8423 19.1128 19.0433 20.1779 19.8311 21.5313ZM13.4407 17.8751C14.0835 17.8751 14.7119 17.6845 15.2463 17.3274C15.7808 16.9703 16.1974 16.4627 16.4433 15.8688C16.6893 15.275 16.7537 14.6215 16.6283 13.9911C16.5029 13.3606 16.1934 12.7815 15.7388 12.327C15.2843 11.8725 14.7052 11.5629 14.0748 11.4375C13.4443 11.3121 12.7909 11.3765 12.197 11.6225C11.6032 11.8685 11.0956 12.285 10.7385 12.8195C10.3813 13.354 10.1907 13.9823 10.1907 14.6251C10.1907 15.4871 10.5331 16.3137 11.1426 16.9232C11.7521 17.5327 12.5788 17.8751 13.4407 17.8751ZM7.75324 12.1876C7.75324 11.9721 7.66763 11.7654 7.51526 11.6131C7.36289 11.4607 7.15623 11.3751 6.94074 11.3751C6.48485 11.3751 6.03811 11.2472 5.65127 11.006C5.26442 10.7648 4.95297 10.4199 4.7523 10.0105C4.55163 9.6012 4.46977 9.14379 4.51603 8.69026C4.56229 8.23672 4.73482 7.80525 5.014 7.44486C5.29319 7.08446 5.66785 6.80958 6.09543 6.65144C6.52301 6.49331 6.98637 6.45825 7.43288 6.55025C7.87938 6.64226 8.29114 6.85764 8.62137 7.17193C8.9516 7.48621 9.18708 7.88682 9.30105 8.32822C9.35492 8.53698 9.48952 8.71578 9.67522 8.8253C9.86093 8.93482 10.0825 8.96608 10.2913 8.91221C10.5 8.85834 10.6788 8.72374 10.7884 8.53804C10.8979 8.35233 10.9291 8.13073 10.8753 7.92197C10.7171 7.30987 10.4182 6.74314 10.0025 6.26686C9.58669 5.79059 9.06551 5.41792 8.48038 5.17852C7.89525 4.93911 7.26231 4.83958 6.63195 4.88783C6.00158 4.93608 5.39117 5.13078 4.84929 5.45646C4.30741 5.78213 3.84902 6.22977 3.51059 6.76377C3.17216 7.29778 2.96303 7.9034 2.89984 8.53244C2.83665 9.16149 2.92115 9.79661 3.14661 10.3873C3.37207 10.9779 3.73227 11.5078 4.19855 11.9347C3.09485 12.4135 2.13553 13.1726 1.41574 14.1366C1.28631 14.309 1.23067 14.5257 1.26104 14.7391C1.29142 14.9526 1.40534 15.1452 1.57773 15.2746C1.75012 15.404 1.96687 15.4597 2.18028 15.4293C2.3937 15.3989 2.58631 15.285 2.71574 15.1126C3.20546 14.4543 3.84289 13.9202 4.57673 13.5533C5.31056 13.1864 6.12029 12.9969 6.94074 13.0001C7.15623 13.0001 7.36289 12.9145 7.51526 12.7621C7.66763 12.6098 7.75324 12.4031 7.75324 12.1876Z" fill="#78A1B6"/>
</svg>
