<svg width="1963" height="1815" viewBox="0 0 1963 1815" fill="none" xmlns="http://www.w3.org/2000/svg">
<g opacity="0.8">
<line x1="0.950357" y1="178.996" x2="1744.25" y2="5.05149" stroke="#1E1E1E" stroke-opacity="0.1"/>
<line x1="9.48942" y1="264.571" x2="1752.79" y2="90.6266" stroke="#1E1E1E" stroke-opacity="0.1"/>
<line x1="18.0275" y1="350.146" x2="1761.33" y2="176.202" stroke="#1E1E1E" stroke-opacity="0.1"/>
<line x1="26.5666" y1="435.722" x2="1769.86" y2="261.777" stroke="#1E1E1E" stroke-opacity="0.1"/>
<line x1="35.1047" y1="521.297" x2="1778.4" y2="347.352" stroke="#1E1E1E" stroke-opacity="0.1"/>
<line x1="43.5942" y1="606.374" x2="1786.89" y2="432.429" stroke="url(#paint0_linear_444_29)" stroke-opacity="0.5" stroke-width="3" stroke-dasharray="10 10"/>
<line x1="52.3312" y1="693.939" x2="1795.63" y2="519.995" stroke="#1E1E1E" stroke-opacity="0.1"/>
<line x1="60.9191" y1="780.012" x2="1804.22" y2="606.067" stroke="#1E1E1E" stroke-opacity="0.1"/>
<line x1="69.4582" y1="865.587" x2="1812.76" y2="691.642" stroke="#1E1E1E" stroke-opacity="0.1"/>
<line x1="77.9963" y1="951.162" x2="1821.29" y2="777.217" stroke="#1E1E1E" stroke-opacity="0.1"/>
<line x1="86.5353" y1="1036.74" x2="1829.83" y2="862.792" stroke="#1E1E1E" stroke-opacity="0.1"/>
<line x1="94.9741" y1="1121.32" x2="1838.27" y2="947.372" stroke="url(#paint1_linear_444_29)" stroke-opacity="0.5" stroke-width="3" stroke-dasharray="10 10"/>
<line x1="103.612" y1="1207.89" x2="1846.91" y2="1033.94" stroke="#1E1E1E" stroke-opacity="0.1"/>
<line x1="112.151" y1="1293.46" x2="1855.45" y2="1119.52" stroke="#1E1E1E" stroke-opacity="0.1"/>
<line x1="120.69" y1="1379.04" x2="1863.99" y2="1205.09" stroke="#1E1E1E" stroke-opacity="0.1"/>
<line x1="129.228" y1="1464.61" x2="1872.53" y2="1290.67" stroke="#1E1E1E" stroke-opacity="0.1"/>
<line x1="163.657" y1="1814.69" x2="0.503426" y2="179.544" stroke="#3C3C3C" stroke-opacity="0.1"/>
<line x1="249.232" y1="1806.15" x2="86.0786" y2="171.005" stroke="#3C3C3C" stroke-opacity="0.1"/>
<line x1="334.807" y1="1797.61" x2="171.654" y2="162.466" stroke="#3C3C3C" stroke-opacity="0.1"/>
<line x1="420.382" y1="1789.07" x2="257.229" y2="153.928" stroke="#3C3C3C" stroke-opacity="0.1"/>
<line x1="505.957" y1="1780.53" x2="342.803" y2="145.389" stroke="#3C3C3C" stroke-opacity="0.1"/>
<line x1="591.532" y1="1772" x2="428.378" y2="136.851" stroke="#3C3C3C" stroke-opacity="0.1"/>
<line x1="677.107" y1="1763.46" x2="513.954" y2="128.312" stroke="#3C3C3C" stroke-opacity="0.1"/>
<line x1="761.687" y1="1755.02" x2="598.534" y2="119.873" stroke="url(#paint2_linear_444_29)" stroke-opacity="0.5" stroke-width="3" stroke-dasharray="10 10"/>
<line x1="848.257" y1="1746.38" x2="685.104" y2="111.235" stroke="#3C3C3C" stroke-opacity="0.1"/>
<line x1="933.833" y1="1737.84" x2="770.679" y2="102.696" stroke="#3C3C3C" stroke-opacity="0.1"/>
<line x1="1019.41" y1="1729.3" x2="856.253" y2="94.1576" stroke="#3C3C3C" stroke-opacity="0.1"/>
<line x1="1104.98" y1="1720.76" x2="941.83" y2="85.619" stroke="#3C3C3C" stroke-opacity="0.1"/>
<line x1="1190.56" y1="1712.23" x2="1027.4" y2="77.0805" stroke="#3C3C3C" stroke-opacity="0.1"/>
<line x1="1276.13" y1="1703.69" x2="1112.98" y2="68.5419" stroke="#3C3C3C" stroke-opacity="0.1"/>
<line x1="1361.71" y1="1695.15" x2="1198.55" y2="60.0032" stroke="#3C3C3C" stroke-opacity="0.1"/>
<line x1="1447.28" y1="1686.61" x2="1284.13" y2="51.4646" stroke="#3C3C3C" stroke-opacity="0.1"/>
<line x1="1532.36" y1="1678.12" x2="1369.21" y2="42.9757" stroke="url(#paint3_linear_444_29)" stroke-opacity="0.5" stroke-width="3" stroke-dasharray="10 10"/>
<line x1="1619.43" y1="1669.43" x2="1456.27" y2="34.2881" stroke="#3C3C3C" stroke-opacity="0.1"/>
<line x1="1705" y1="1660.89" x2="1541.85" y2="25.7495" stroke="#3C3C3C" stroke-opacity="0.1"/>
<line x1="1790.58" y1="1652.36" x2="1627.43" y2="17.211" stroke="#3C3C3C" stroke-opacity="0.1"/>
<line x1="1876.15" y1="1643.82" x2="1713" y2="8.67226" stroke="#3C3C3C" stroke-opacity="0.1"/>
<line x1="1961.73" y1="1635.28" x2="1798.58" y2="0.133687" stroke="#3C3C3C" stroke-opacity="0.1"/>
</g>
<defs>
<linearGradient id="paint0_linear_444_29" x1="43.7928" y1="608.364" x2="1052.09" y2="488.573" gradientUnits="userSpaceOnUse">
<stop stop-color="#A7A7A7"/>
<stop offset="0.605769" stop-color="#999999"/>
<stop offset="0.990385" stop-color="#999999" stop-opacity="0.2"/>
</linearGradient>
<linearGradient id="paint1_linear_444_29" x1="95.1727" y1="1123.31" x2="1103.47" y2="1003.52" gradientUnits="userSpaceOnUse">
<stop stop-color="#A7A7A7" stop-opacity="0.3"/>
<stop offset="0.528846" stop-color="#999999"/>
<stop offset="0.932692" stop-color="#999999" stop-opacity="0.2"/>
</linearGradient>
<linearGradient id="paint2_linear_444_29" x1="402.649" y1="275.283" x2="742" y2="734" gradientUnits="userSpaceOnUse">
<stop offset="0.0576923" stop-color="white" stop-opacity="0"/>
<stop offset="0.427885" stop-color="white"/>
<stop offset="0.721154" stop-color="#999999"/>
<stop offset="0.918269" stop-color="#999999" stop-opacity="0"/>
</linearGradient>
<linearGradient id="paint3_linear_444_29" x1="1173.32" y1="198.386" x2="1512.67" y2="657.103" gradientUnits="userSpaceOnUse">
<stop offset="0.0576923" stop-color="white" stop-opacity="0"/>
<stop offset="0.427885" stop-color="white"/>
<stop offset="0.721154" stop-color="#999999"/>
<stop offset="0.918269" stop-color="#999999" stop-opacity="0"/>
</linearGradient>
</defs>
</svg>
