<svg width="57" height="32" viewBox="0 0 57 32" fill="none" xmlns="http://www.w3.org/2000/svg">
<path fill-rule="evenodd" clip-rule="evenodd" d="M11.3244 18.1048C11.0363 18.2155 10.7483 18.3292 10.5127 18.436C6.9171 20.0443 3.55013 22.4296 1.27257 25.2454C1.43809 24.3196 1.43077 23.3623 1.2869 22.4647C1.26069 22.3238 1.10371 22.2236 0.946424 22.2411C0.763233 22.2588 0.63216 22.3875 0.658375 22.5282C0.867781 23.9166 0.762928 25.4565 0.134403 26.7686C0.081974 26.9014 0.160618 27.05 0.317902 27.101C0.360577 27.1128 0.403555 27.1182 0.444704 27.1177C0.497705 27.1233 0.551594 27.1177 0.601152 27.1016C0.650711 27.0854 0.694258 27.0592 0.72757 27.0254C1.85385 25.9289 3.76564 25.4804 5.46802 25.3084C5.54939 25.2972 5.6222 25.2609 5.67105 25.2072C5.71991 25.1535 5.74099 25.0865 5.72985 25.0205C5.71746 24.9519 5.67199 24.8899 5.60332 24.8482C5.53465 24.8064 5.44834 24.7883 5.36316 24.7976C4.10977 24.926 2.74604 25.2085 1.61518 25.7569C3.85464 22.9098 7.21978 20.4987 10.8269 18.8857C10.9587 18.8262 11.0925 18.7695 11.2281 18.7157L11.2723 18.6977C11.2928 18.9787 11.4108 19.2493 11.6127 19.4787C11.9008 19.7877 12.3458 19.9975 12.8698 20.1139C13.6029 20.2748 14.467 20.2571 15.2528 20.11C15.8551 19.9919 16.4053 19.7901 16.7458 19.5416C17.0338 19.3409 17.1908 19.1067 17.217 18.8599C17.2432 18.5998 17.1125 18.3112 16.7196 18.0209C16.0648 17.5178 15.1742 17.3682 14.2052 17.4322C13.498 17.4794 12.7649 17.6447 12.084 17.8504C12.1736 17.6593 12.2786 17.4732 12.3982 17.2932C13.4459 15.7909 15.96 14.3752 18.9194 13.2021C23.4239 11.4206 28.9764 10.2129 32.0666 10.201C32.2239 10.2003 32.3809 10.0844 32.3809 9.94246C32.3809 9.8005 32.2239 9.68561 32.0669 9.68634C28.8978 9.69865 23.2407 10.9214 18.6314 12.7401C15.5412 13.9671 12.9219 15.472 11.8481 17.0437C11.5862 17.4391 11.403 17.7916 11.3244 18.1048ZM11.9005 18.4625C11.8746 18.7521 11.9529 18.9851 12.1102 19.1694C12.3196 19.3925 12.6601 19.5335 13.0268 19.6177C13.6553 19.7572 14.4149 19.7367 15.0958 19.6091C15.5671 19.5175 16.0124 19.3716 16.3005 19.1819C16.4574 19.0747 16.5626 18.9583 16.5888 18.824C16.5888 18.6867 16.4836 18.5472 16.3005 18.3941C15.7506 17.9907 15.0172 17.894 14.2576 17.9451C13.4721 17.9983 12.6076 18.2143 11.9005 18.4625Z" fill="url(#paint0_linear_308_123)"/>
<defs>
<linearGradient id="paint0_linear_308_123" x1="32.3809" y1="18.4031" x2="0.118229" y2="18.4031" gradientUnits="userSpaceOnUse">
<stop stop-color="#035E71"/>
<stop offset="0.283654" stop-color="#5DA9B9"/>
<stop offset="0.769231" stop-color="#035E71"/>
</linearGradient>
</defs>
</svg>
