<svg width="185" height="77" viewBox="0 0 185 77" fill="none" xmlns="http://www.w3.org/2000/svg">
<g clip-path="url(#clip0_80_6517)">
<g clip-path="url(#clip1_80_6517)">
<path fill-rule="evenodd" clip-rule="evenodd" d="M143.658 37.5436C144.595 37.99 145.533 38.4484 146.3 38.8789C158.002 45.364 168.96 54.9821 176.373 66.3363C175.834 62.6031 175.858 58.743 176.326 55.124C176.412 54.5555 176.923 54.1517 177.435 54.2222C178.031 54.2936 178.457 54.8124 178.372 55.3799C177.69 60.9781 178.032 67.1874 180.077 72.4781C180.248 73.0138 179.992 73.613 179.48 73.8184C179.341 73.866 179.201 73.8878 179.067 73.8859C178.895 73.9084 178.72 73.886 178.558 73.8208C178.397 73.7556 178.255 73.6499 178.147 73.5138C174.481 69.0922 168.259 67.2837 162.718 66.5902C162.453 66.5451 162.216 66.3988 162.057 66.1822C161.898 65.9656 161.83 65.6957 161.866 65.4295C161.906 65.1526 162.054 64.9029 162.278 64.7346C162.501 64.5663 162.782 64.493 163.06 64.5307C167.139 65.0486 171.577 66.1874 175.258 68.3988C167.969 56.9186 157.017 47.1964 145.277 40.6924C144.848 40.4523 144.412 40.2237 143.971 40.0069L143.827 39.9345C143.76 41.0672 143.376 42.1583 142.719 43.0833C141.782 44.3293 140.333 45.1755 138.628 45.6448C136.242 46.2936 133.43 46.2222 130.872 45.6289C128.912 45.1527 127.121 44.3392 126.013 43.3372C125.075 42.5277 124.564 41.5833 124.479 40.5882C124.394 39.5396 124.819 38.3759 126.098 37.2053C128.229 35.1765 131.128 34.5734 134.282 34.8313C136.583 35.0218 138.969 35.6884 141.185 36.5178C140.894 35.7473 140.552 34.9967 140.163 34.2708C136.753 28.2132 128.57 22.5049 118.938 17.7747C104.278 10.5912 86.2063 5.72118 76.1488 5.67356C75.6369 5.67058 75.126 5.20332 75.126 4.6309C75.126 4.05848 75.6369 3.59518 76.1478 3.59816C86.4623 3.64776 104.874 8.57832 119.876 15.9117C129.934 20.8591 138.458 26.9275 141.953 33.2648C142.806 34.8591 143.402 36.2807 143.658 37.5436ZM141.783 38.9861C141.867 40.1537 141.612 41.0932 141.1 41.8363C140.419 42.7361 139.31 43.3045 138.117 43.6438C136.071 44.2063 133.599 44.124 131.383 43.6091C129.849 43.24 128.4 42.6517 127.462 41.8868C126.951 41.4543 126.609 40.9851 126.524 40.4434C126.524 39.8898 126.866 39.3273 127.462 38.7103C129.252 37.0833 131.639 36.6934 134.111 36.8997C136.668 37.114 139.481 37.9851 141.783 38.9861Z" fill="url(#paint0_linear_80_6517)"/>
</g>
</g>
<defs>
<linearGradient id="paint0_linear_80_6517" x1="75.126" y1="38.7463" x2="180.13" y2="38.7463" gradientUnits="userSpaceOnUse">
<stop stop-color="#035E71"/>
<stop offset="0.283654" stop-color="#5DA9B9"/>
<stop offset="0.769231" stop-color="#035E71"/>
</linearGradient>
<clipPath id="clip0_80_6517">
<rect width="185" height="77" fill="white"/>
</clipPath>
<clipPath id="clip1_80_6517">
<rect width="185.516" height="125" fill="white" transform="translate(-5 -33)"/>
</clipPath>
</defs>
</svg>
