<svg width="18" height="18" viewBox="0 0 18 18" fill="none" xmlns="http://www.w3.org/2000/svg">
<path d="M8.99675 0.041687C9.87117 0.041687 10.5599 0.702129 10.9996 1.59328L12.468 4.55432C12.5125 4.64596 12.6181 4.775 12.7767 4.89305C12.9352 5.01098 13.0905 5.07603 13.1926 5.09319L15.8506 5.53846C16.8107 5.6998 17.6155 6.17043 17.8767 6.98994C18.1377 7.80877 17.7553 8.65969 17.0648 9.35135L17.0642 9.3521L14.9992 11.4341C14.9174 11.5166 14.8257 11.672 14.7682 11.8745C14.7112 12.0757 14.7061 12.2589 14.732 12.3773L14.7323 12.3789L15.3231 14.9545C15.5682 16.0264 15.4869 17.0894 14.7309 17.6452C13.9722 18.2028 12.9356 17.9556 11.9937 17.3947L9.50216 15.9075C9.3975 15.845 9.21783 15.7944 9.00091 15.7944C8.78558 15.7944 8.60216 15.8444 8.49066 15.9092L8.48908 15.9101L6.0024 17.3944C5.06171 17.9573 4.02628 18.2 3.26759 17.6419C2.51207 17.086 2.42678 16.025 2.67259 14.9539L3.26325 12.3789L3.26361 12.3773C3.28951 12.2589 3.28444 12.0757 3.22733 11.8745C3.16983 11.672 3.07816 11.5166 2.99631 11.4341L0.929873 9.35052C0.243873 8.65885 -0.137327 7.80869 0.121623 6.99106C0.381323 6.17106 1.18452 5.69985 2.14527 5.5384L4.8011 5.09351L4.80194 5.09337C4.89931 5.07648 5.05225 5.01215 5.2104 4.89392C5.36884 4.77547 5.47466 4.64615 5.51926 4.55432L5.52151 4.54975L6.98801 1.5925L6.9886 1.59133C7.4325 0.70092 8.12333 0.041687 8.99675 0.041687Z" fill="url(#paint0_radial_287_1110)"/>
<defs>
<radialGradient id="paint0_radial_287_1110" cx="0" cy="0" r="1" gradientTransform="matrix(8.94 -6.71918 0.439959 8.93933 9.0192 15.7198)" gradientUnits="userSpaceOnUse">
<stop stop-color="#FFCF72"/>
<stop offset="1" stop-color="#F7A300"/>
</radialGradient>
</defs>
</svg>
