<svg width="24" height="25" viewBox="0 0 24 25" fill="none" xmlns="http://www.w3.org/2000/svg">
<path opacity="0.2" d="M20.25 8.25C20.25 10.7353 16.5562 12.75 12 12.75C7.44375 12.75 3.75 10.7353 3.75 8.25C3.75 5.76469 7.44375 3.75 12 3.75C16.5562 3.75 20.25 5.76469 20.25 8.25Z" fill="url(#paint0_linear_251_2212)"/>
<path d="M12 3C6.95344 3 3 5.30625 3 8.25V17.25C3 20.1938 6.95344 22.5 12 22.5C17.0466 22.5 21 20.1938 21 17.25V8.25C21 5.30625 17.0466 3 12 3ZM19.5 12.75C19.5 13.6519 18.7612 14.5716 17.4741 15.2738C16.0247 16.0641 14.0803 16.5 12 16.5C9.91969 16.5 7.97531 16.0641 6.52594 15.2738C5.23875 14.5716 4.5 13.6519 4.5 12.75V11.19C6.09938 12.5963 8.83406 13.5 12 13.5C15.1659 13.5 17.9006 12.5925 19.5 11.19V12.75ZM6.52594 5.72625C7.97531 4.93594 9.91969 4.5 12 4.5C14.0803 4.5 16.0247 4.93594 17.4741 5.72625C18.7612 6.42844 19.5 7.34812 19.5 8.25C19.5 9.15188 18.7612 10.0716 17.4741 10.7737C16.0247 11.5641 14.0803 12 12 12C9.91969 12 7.97531 11.5641 6.52594 10.7737C5.23875 10.0716 4.5 9.15188 4.5 8.25C4.5 7.34812 5.23875 6.42844 6.52594 5.72625ZM17.4741 19.7738C16.0247 20.5641 14.0803 21 12 21C9.91969 21 7.97531 20.5641 6.52594 19.7738C5.23875 19.0716 4.5 18.1519 4.5 17.25V15.69C6.09938 17.0963 8.83406 18 12 18C15.1659 18 17.9006 17.0925 19.5 15.69V17.25C19.5 18.1519 18.7612 19.0716 17.4741 19.7738Z" fill="url(#paint1_linear_251_2212)"/>
<defs>
<linearGradient id="paint0_linear_251_2212" x1="3.75" y1="8.25" x2="20.25" y2="8.25" gradientUnits="userSpaceOnUse">
<stop stop-color="#035E71"/>
<stop offset="0.283654" stop-color="#5DA9B9"/>
<stop offset="0.769231" stop-color="#035E71"/>
</linearGradient>
<linearGradient id="paint1_linear_251_2212" x1="3" y1="12.75" x2="21" y2="12.75" gradientUnits="userSpaceOnUse">
<stop stop-color="#035E71"/>
<stop offset="0.283654" stop-color="#5DA9B9"/>
<stop offset="0.769231" stop-color="#035E71"/>
</linearGradient>
</defs>
</svg>
