<svg width="13" height="16" viewBox="0 0 13 16" fill="none" xmlns="http://www.w3.org/2000/svg">
<path d="M5.36425 0.136523C5.43709 0.0759627 5.52342 0.0338026 5.61597 0.0135975C5.70852 -0.0066076 5.80457 -0.00426544 5.89603 0.0204265C5.98748 0.0451183 6.07166 0.0914362 6.14146 0.155475C6.21126 0.219514 6.26465 0.299397 6.29711 0.38839L7.92205 4.85034L9.70654 3.12125C9.76647 3.06312 9.83803 3.01836 9.91652 2.9899C9.995 2.96144 10.0786 2.94994 10.1619 2.95615C10.2451 2.96236 10.3261 2.98615 10.3995 3.02593C10.4729 3.06572 10.5371 3.12061 10.5877 3.18698C12.1875 5.28316 13 7.39189 13 9.45409C13 11.1779 12.3152 12.8312 11.0963 14.0501C9.87732 15.2691 8.22408 15.9539 6.50023 15.9539C4.77638 15.9539 3.12314 15.2691 1.9042 14.0501C0.685253 12.8312 0.000457764 11.1779 0.000457764 9.45409C0.000457764 5.06305 3.75186 1.4771 5.36425 0.136523ZM6.50023 14.7721C7.91017 14.7705 9.26191 14.2097 10.2589 13.2128C11.2559 12.2158 11.8167 10.864 11.8182 9.45409C11.8182 7.82915 11.2207 6.14586 10.0411 4.44336L8.09341 6.33273C8.02268 6.40142 7.93587 6.45132 7.84091 6.47788C7.74596 6.50445 7.64586 6.50682 7.54975 6.48479C7.45364 6.46277 7.36457 6.41704 7.29065 6.35177C7.21674 6.28651 7.16033 6.20379 7.12657 6.11114L5.48169 1.60045C3.82572 3.10795 1.18223 6.04984 1.18223 9.45409C1.1838 10.864 1.74459 12.2158 2.74157 13.2128C3.73854 14.2097 5.09029 14.7705 6.50023 14.7721Z" fill="#035E71"/>
</svg>
