<svg width="482" height="455" viewBox="0 0 482 455" fill="none" xmlns="http://www.w3.org/2000/svg">
<path fill-rule="evenodd" clip-rule="evenodd" d="M481.928 0.917223C481.929 0.914876 481.93 0.913115 481.411 0.610309C480.893 0.307501 480.892 0.308087 480.891 0.310434L480.885 0.319828L480.861 0.357973C480.839 0.392597 480.807 0.444229 480.764 0.512303C480.678 0.649625 480.548 0.85385 480.375 1.12438C480.03 1.66545 479.511 2.46882 478.822 3.51808C477.443 5.61544 475.381 8.69339 472.648 12.6123C467.182 20.4495 459.034 31.6487 448.309 45.0896C426.859 71.9715 395.105 107.814 353.894 143.655C271.466 215.343 151.253 286.987 0.00463867 286.987V288.16C151.664 288.16 272.154 216.322 354.703 144.529C395.98 108.629 427.783 72.7314 449.267 45.8073C460.009 32.3453 468.173 21.1255 473.652 13.2695C476.391 9.34125 478.459 6.25449 479.843 4.14835C480.536 3.09557 481.057 2.28749 481.405 1.74232C481.579 1.47002 481.71 1.26346 481.798 1.12438C481.841 1.05455 481.874 1.00231 481.896 0.967104L481.921 0.927199L481.928 0.917223ZM481.87 87.2586C481.871 87.2568 481.872 87.2562 481.411 86.8754C480.95 86.4951 480.95 86.4957 480.949 86.4968L480.943 86.5033L480.919 86.5303L480.877 86.5778L480.822 86.6389C480.786 86.6805 480.741 86.7304 480.688 86.7891L480.604 86.883C480.553 86.9399 480.497 87.0027 480.434 87.0714C480.089 87.4534 479.571 88.0214 478.883 88.7632C477.505 90.2461 475.444 92.4233 472.712 95.1949C467.248 100.738 459.102 108.66 448.379 118.168C426.933 137.185 395.183 162.544 353.974 187.903C271.555 238.621 151.315 289.334 0.00463867 289.334V290.508C151.603 290.508 272.066 239.698 354.623 188.893C395.902 163.492 427.708 138.089 449.197 119.034C459.941 109.507 468.107 101.566 473.588 96.0054C476.328 93.2249 478.398 91.0395 479.783 89.5484C480.475 88.8025 480.997 88.2304 481.346 87.8442C481.52 87.6512 481.651 87.5044 481.739 87.4059C481.783 87.3566 481.816 87.3196 481.838 87.2944L481.863 87.2662L481.87 87.2586ZM481.411 146.733C481.801 147.182 481.8 147.183 481.799 147.184L481.792 147.189L481.767 147.21L481.702 147.263L481.668 147.29C481.58 147.361 481.448 147.466 481.274 147.604C480.925 147.881 480.403 148.291 479.71 148.827C478.324 149.896 476.254 151.463 473.513 153.456C468.031 157.442 459.865 163.134 449.12 169.963C427.63 183.622 395.825 201.829 354.549 220.034C271.998 256.447 151.561 292.855 0.00463867 292.855V291.681C151.357 291.681 271.623 255.322 354.047 218.966C395.26 200.789 427.011 182.611 448.456 168.982C459.178 162.167 467.324 156.489 472.786 152.517C475.518 150.531 477.579 148.971 478.956 147.908C479.644 147.377 480.162 146.97 480.506 146.696C480.58 146.638 480.646 146.585 480.705 146.538C480.782 146.477 480.845 146.426 480.894 146.386C480.937 146.352 480.969 146.326 480.99 146.309L481.014 146.29L481.02 146.285C481.02 146.285 481.02 146.284 481.032 146.298C481.038 146.304 481.047 146.314 481.059 146.328C481.082 146.354 481.118 146.395 481.175 146.461L481.411 146.733ZM481.67 212.402C481.67 212.402 481.671 212.402 481.67 212.401C481.67 212.4 481.669 212.397 481.667 212.392C481.662 212.382 481.653 212.362 481.632 212.321C481.598 212.251 481.533 212.119 481.411 211.872C481.293 211.632 481.228 211.501 481.193 211.43C481.176 211.396 481.166 211.376 481.159 211.363C481.153 211.35 481.15 211.346 481.149 211.344C481.149 211.343 481.148 211.343 481.148 211.343L481.143 211.346L481.119 211.357L481.022 211.401C480.936 211.44 480.807 211.499 480.634 211.577C480.289 211.732 479.772 211.964 479.083 212.267C477.706 212.87 475.644 213.758 472.912 214.887C467.448 217.147 459.301 220.375 448.576 224.25C427.127 232.001 395.369 242.338 354.147 252.676C271.702 273.35 151.402 294.029 0.00463867 294.029V295.202C151.516 295.202 271.919 274.509 354.45 253.812C395.716 243.463 427.514 233.114 449 225.35C459.742 221.468 467.907 218.233 473.388 215.967C476.128 214.834 478.197 213.943 479.582 213.336C480.275 213.032 480.797 212.798 481.146 212.641C481.32 212.562 481.451 212.502 481.539 212.463L481.639 212.417L481.664 212.405L481.67 212.402ZM481.411 264.1C481.494 264.52 481.516 264.634 481.521 264.665C481.523 264.677 481.522 264.677 481.522 264.677L481.516 264.678L481.491 264.683L481.392 264.701C481.305 264.717 481.174 264.74 481 264.771L480.837 264.801L480.636 264.837C480.526 264.856 480.405 264.878 480.273 264.901C480.03 264.943 479.753 264.992 479.44 265.047C478.057 265.288 475.989 265.641 473.251 266.091C467.775 266.99 459.614 268.274 448.877 269.815C427.401 272.897 395.614 277.006 354.36 281.115C271.853 289.333 151.481 297.55 0.00463867 297.55V296.376C151.436 296.376 271.767 288.162 354.236 279.948C395.471 275.841 427.241 271.734 448.699 268.654C459.429 267.115 467.58 265.832 473.049 264.933C475.783 264.484 477.846 264.132 479.226 263.892C479.915 263.771 480.434 263.679 480.78 263.617C480.953 263.587 481.083 263.563 481.169 263.547L481.266 263.53L481.29 263.525L481.296 263.524C481.296 263.524 481.297 263.524 481.3 263.535C481.302 263.546 481.306 263.567 481.315 263.609L481.333 263.702C481.35 263.787 481.375 263.913 481.411 264.1ZM481.405 295.789C481.406 295.789 481.407 295.789 481.411 296.376C481.416 296.963 481.415 296.963 481.414 296.963H481.408H481.398L481.383 296.964H481.365H481.342H481.316L481.285 296.964H481.251L481.212 296.965H481.169L481.122 296.965H481.072L481.017 296.966L480.958 296.966L480.895 296.967H480.827L480.756 296.968L480.681 296.968L480.602 296.969L480.519 296.969L480.431 296.97L480.34 296.971L480.245 296.972L480.145 296.972L480.042 296.973L479.935 296.974L479.823 296.975L479.708 296.975L479.588 296.976L479.465 296.977L479.337 296.978L479.206 296.979L479.07 296.98L478.931 296.981L478.787 296.982L478.64 296.983L478.488 296.985L478.333 296.986L478.173 296.987L478.01 296.988L477.842 296.989L477.671 296.991L477.495 296.992L477.316 296.993L477.133 296.994L476.945 296.996L476.754 296.997L476.559 296.999L476.359 297L476.156 297.002L475.949 297.003L475.738 297.005L475.523 297.006L475.304 297.008L475.081 297.009L474.854 297.011L474.623 297.013L474.388 297.015L474.149 297.016L473.906 297.018L473.66 297.02L473.409 297.022L473.154 297.023L472.896 297.025L472.634 297.027L472.367 297.029L472.097 297.031L471.823 297.033L471.545 297.035L471.263 297.037L470.977 297.039L470.687 297.042L470.393 297.044L470.095 297.046L469.794 297.048L469.488 297.05L469.179 297.053L468.866 297.055L468.549 297.057L468.228 297.059L467.903 297.062L467.574 297.064L467.241 297.067L466.905 297.069L466.564 297.071L466.22 297.074L465.871 297.077L465.519 297.079L465.163 297.082L464.804 297.084L464.44 297.087L464.072 297.09L463.701 297.093L463.326 297.096L462.946 297.098L462.563 297.101L462.177 297.104L461.786 297.107L461.391 297.11L460.993 297.113L460.591 297.116L460.185 297.118L459.775 297.121L459.361 297.124L458.943 297.127L458.522 297.13L458.097 297.134L457.668 297.137L457.235 297.14L456.798 297.143L456.358 297.146L455.913 297.15L455.465 297.153L455.013 297.156L454.558 297.16L454.098 297.163L453.635 297.166L453.168 297.169L452.697 297.173L452.222 297.177L451.743 297.18L451.261 297.184L450.775 297.187L450.285 297.191L449.791 297.194L449.294 297.198L448.793 297.202L448.288 297.205L447.779 297.209L447.266 297.213L446.75 297.216L446.23 297.221L445.706 297.224L445.178 297.228L444.647 297.232L444.112 297.236L443.573 297.24L443.03 297.244L442.484 297.248L441.934 297.252L441.38 297.256L440.822 297.26L440.261 297.264L439.696 297.268L439.127 297.272L438.554 297.276L437.978 297.281L437.398 297.285L436.814 297.289L436.227 297.293L435.635 297.298L435.04 297.302L434.442 297.307L433.839 297.311L433.233 297.316L432.624 297.32L432.01 297.324L431.393 297.329L430.772 297.333L430.147 297.338L429.519 297.343L428.887 297.347L428.252 297.352L427.612 297.357L426.969 297.361L426.322 297.366L425.672 297.371L425.018 297.375L424.36 297.38L423.699 297.385L423.034 297.39L422.365 297.395L421.692 297.4L421.016 297.405L420.337 297.409L419.653 297.415L418.966 297.419L418.275 297.425L417.581 297.43L416.883 297.435L416.181 297.44L415.476 297.445L414.767 297.451L414.054 297.456L413.338 297.461L412.618 297.466L411.894 297.472L411.168 297.477L410.437 297.482L409.702 297.488L408.964 297.493L408.222 297.498L407.477 297.504L406.728 297.509L405.976 297.515L405.219 297.52L404.46 297.526L403.696 297.532L402.93 297.537L402.159 297.543L401.385 297.549L400.607 297.554L399.826 297.56L399.041 297.566L398.253 297.571L397.461 297.577L396.665 297.583L395.866 297.589L395.063 297.594L394.256 297.6L393.446 297.607L392.633 297.613L391.816 297.618L390.995 297.624L390.17 297.63L389.343 297.637L388.511 297.642L387.676 297.648L386.838 297.655L385.996 297.661L385.15 297.667L384.301 297.674L383.448 297.679L382.592 297.686L381.732 297.692L380.869 297.698L380.002 297.705L379.131 297.711L378.258 297.718L377.38 297.724L376.499 297.73L375.614 297.737L374.727 297.743L373.835 297.75L372.94 297.756L372.041 297.763L371.139 297.77L370.234 297.776L369.324 297.783L368.411 297.79L367.495 297.796L366.576 297.803L365.653 297.81L364.726 297.816L363.796 297.823L362.862 297.83L361.925 297.837L360.984 297.844L360.04 297.851L359.093 297.858L358.142 297.865L357.188 297.871L356.23 297.878L355.268 297.885L354.303 297.892L353.335 297.9L352.363 297.907L351.387 297.914L350.409 297.921L349.426 297.928L348.441 297.935L347.452 297.943L346.459 297.95L345.463 297.958L344.463 297.965L343.461 297.972L342.454 297.979L341.444 297.987L340.431 297.994L339.414 298.002L338.395 298.009L337.371 298.016L336.344 298.024L335.314 298.032L334.28 298.039L333.243 298.047L332.202 298.054L331.158 298.062L330.11 298.07L329.06 298.077L328.005 298.085L326.948 298.093L325.887 298.101L324.822 298.108L323.754 298.116L322.683 298.124L321.608 298.132L320.531 298.14L319.449 298.148L318.364 298.155L317.276 298.164L316.185 298.171L315.089 298.179L313.991 298.188L312.889 298.196L311.784 298.203L310.676 298.212L309.564 298.22L308.449 298.228L307.33 298.236L306.208 298.245L305.083 298.253L303.954 298.261L302.823 298.269L301.687 298.277L300.549 298.286L299.407 298.294L298.262 298.303L297.113 298.311L295.961 298.32L294.805 298.328L293.647 298.336L292.485 298.345L291.32 298.353L290.151 298.362L288.979 298.371L287.804 298.379L286.625 298.388L285.443 298.397L284.258 298.405L283.069 298.414L281.878 298.422L280.682 298.431L279.484 298.44L278.282 298.449L277.077 298.458L275.869 298.466L274.657 298.475L273.442 298.484L272.224 298.493L271.003 298.502L269.778 298.511L268.55 298.52L267.318 298.529L266.084 298.538L264.846 298.547L263.605 298.556L262.36 298.565L261.113 298.574L259.862 298.583L258.608 298.593L257.35 298.602L256.089 298.611L254.826 298.62L253.558 298.63L252.288 298.639L251.014 298.648L249.737 298.658L248.457 298.667L247.173 298.676L245.887 298.686L244.597 298.695L243.304 298.705L242.007 298.714L240.708 298.723L239.405 298.733L238.099 298.743L236.789 298.752L235.477 298.762L234.161 298.772L232.843 298.781L231.521 298.791L230.195 298.8L228.867 298.81L227.535 298.82L226.2 298.83L224.861 298.84L223.52 298.849L222.176 298.859L220.828 298.869L219.477 298.879L218.123 298.889L216.766 298.899L215.405 298.909L214.042 298.919L212.675 298.929L211.305 298.939L209.932 298.949L208.555 298.959L207.176 298.969L205.793 298.979L204.407 298.989L203.018 298.999L201.626 299.009L200.231 299.02L198.832 299.03L197.431 299.04L196.026 299.05L194.618 299.061L193.207 299.071L191.793 299.081L190.376 299.092L188.955 299.102L187.532 299.112L186.105 299.123L184.675 299.134L183.243 299.144L181.806 299.154L180.367 299.165L178.924 299.175L177.479 299.186L176.03 299.196L174.579 299.207L173.124 299.218L171.666 299.229L170.205 299.239L168.741 299.25L167.274 299.26L165.803 299.272L164.33 299.282L162.854 299.293L161.375 299.304L159.892 299.314L158.406 299.326L156.917 299.336L155.425 299.347L153.931 299.358L152.432 299.369L150.931 299.38L149.427 299.391L147.92 299.402L146.41 299.413L144.896 299.424L143.38 299.435L141.86 299.446L140.337 299.458L138.812 299.469L137.284 299.48L135.752 299.491L134.217 299.502L132.679 299.514L131.138 299.525L129.594 299.536L128.047 299.547L126.498 299.559L124.944 299.57L123.389 299.581L121.83 299.593L120.267 299.604L118.703 299.616L117.134 299.627L115.563 299.639L113.989 299.651L112.412 299.662L110.832 299.673L109.249 299.685L107.662 299.696L106.073 299.708L104.481 299.72L102.886 299.732L101.288 299.743L99.6867 299.755L98.0826 299.767L96.4755 299.779L94.8653 299.79L93.2522 299.802L91.636 299.814L90.0174 299.826L88.3951 299.838L86.7699 299.85L85.1421 299.861L83.5114 299.873L81.8771 299.885L80.2403 299.897L78.6005 299.909L76.9576 299.921L75.3124 299.934L73.6635 299.945L72.0116 299.958L70.3572 299.969L68.6999 299.982L67.0388 299.994L65.3754 300.006L63.7096 300.018L62.0401 300.03L60.3676 300.043L58.6927 300.055L57.0147 300.067L55.3337 300.08L53.6497 300.092L51.9626 300.104L50.2726 300.117L48.5801 300.129L46.8846 300.141L45.186 300.154L43.4844 300.166L41.7798 300.179L40.0728 300.191L38.3628 300.203L36.6497 300.216L34.9336 300.229L33.215 300.241L31.4929 300.254L29.7682 300.266L28.0407 300.279L26.3106 300.291L24.5769 300.304L22.8409 300.317L21.1018 300.33L19.3602 300.342L17.6151 300.355L15.8674 300.368L14.1168 300.381L12.3632 300.394L10.6071 300.406L8.84799 300.419L7.08588 300.432L5.32132 300.445L3.5531 300.458L1.7825 300.471L0.00946045 300.484L0.000396729 299.31L1.77344 299.297L3.54404 299.284L5.31223 299.272L7.07678 299.259L8.8389 299.246L10.598 299.233L12.3541 299.22L14.1077 299.207L15.8584 299.195L17.606 299.182L19.3505 299.169L21.0927 299.156L22.8318 299.144L24.5679 299.131L26.3015 299.118L28.0316 299.105L29.7592 299.093L31.4838 299.08L33.2059 299.067L34.9245 299.055L36.6406 299.043L38.3537 299.03L40.0637 299.017L41.7708 299.005L43.4754 298.992L45.1769 298.98L46.8755 298.968L48.571 298.955L50.2635 298.943L51.9536 298.931L53.6406 298.918L55.3246 298.906L57.0056 298.894L58.6836 298.881L60.3585 298.869L62.031 298.857L63.7005 298.844L65.3663 298.832L67.0297 298.82L68.6901 298.808L70.3481 298.796L72.0025 298.784L73.6544 298.772L75.3027 298.76L76.9485 298.747L78.5914 298.736L80.2312 298.723L81.868 298.712L83.5023 298.699L85.1331 298.688L86.7608 298.676L88.386 298.664L90.0083 298.652L91.6269 298.64L93.2431 298.628L94.8562 298.617L96.4664 298.605L98.0735 298.593L99.6776 298.581L101.279 298.57L102.877 298.558L104.472 298.546L106.064 298.534L107.653 298.523L109.24 298.512L110.823 298.5L112.403 298.488L113.98 298.477L115.554 298.465L117.125 298.453L118.693 298.442L120.258 298.431L121.82 298.419L123.379 298.408L124.935 298.397L126.489 298.385L128.038 298.374L129.585 298.363L131.129 298.351L132.67 298.34L134.207 298.328L135.743 298.317L137.274 298.306L138.803 298.295L140.328 298.284L141.851 298.273L143.371 298.262L144.887 298.25L146.4 298.24L147.911 298.229L149.418 298.218L150.922 298.206L152.423 298.195L153.921 298.185L155.416 298.174L156.908 298.163L158.397 298.152L159.882 298.141L161.365 298.13L162.845 298.12L164.321 298.108L165.794 298.098L167.265 298.087L168.732 298.076L170.196 298.066L171.657 298.055L173.115 298.044L174.57 298.033L176.021 298.023L177.47 298.012L178.915 298.002L180.358 297.991L181.797 297.98L183.233 297.97L184.666 297.96L186.096 297.949L187.522 297.939L188.946 297.928L190.367 297.918L191.784 297.908L193.198 297.897L194.609 297.887L196.017 297.877L197.422 297.867L198.823 297.856L200.222 297.846L201.617 297.836L203.009 297.826L204.398 297.816L205.784 297.805L207.167 297.795L208.546 297.785L209.923 297.775L211.296 297.765L212.666 297.755L214.033 297.745L215.396 297.735L216.757 297.725L218.114 297.715L219.468 297.705L220.819 297.695L222.167 297.685L223.511 297.675L224.852 297.666L226.191 297.656L227.526 297.646L228.857 297.637L230.186 297.627L231.511 297.617L232.833 297.607L234.152 297.598L235.468 297.588L236.78 297.579L238.09 297.569L239.396 297.559L240.699 297.55L241.998 297.54L243.295 297.531L244.588 297.522L245.877 297.512L247.164 297.503L248.448 297.493L249.728 297.484L251.005 297.475L252.279 297.465L253.549 297.456L254.816 297.446L256.08 297.438L257.341 297.428L258.599 297.419L259.853 297.41L261.104 297.401L262.351 297.391L263.596 297.383L264.837 297.373L266.075 297.364L267.309 297.355L268.54 297.346L269.769 297.337L270.994 297.328L272.215 297.319L273.433 297.31L274.648 297.302L275.86 297.293L277.068 297.284L278.273 297.275L279.475 297.266L280.673 297.258L281.868 297.249L283.06 297.24L284.249 297.231L285.434 297.223L286.616 297.214L287.794 297.205L288.97 297.197L290.142 297.188L291.311 297.179L292.476 297.171L293.638 297.162L294.796 297.154L295.952 297.146L297.104 297.137L298.253 297.129L299.398 297.121L300.54 297.112L301.678 297.104L302.814 297.096L303.945 297.087L305.074 297.079L306.199 297.071L307.321 297.063L308.44 297.054L309.555 297.046L310.667 297.038L311.775 297.03L312.88 297.022L313.982 297.014L315.08 297.006L316.175 296.998L317.267 296.99L318.355 296.982L319.44 296.974L320.521 296.966L321.599 296.958L322.674 296.951L323.745 296.942L324.813 296.935L325.878 296.927L326.938 296.919L327.996 296.911L329.051 296.904L330.101 296.896L331.149 296.888L332.193 296.881L333.234 296.873L334.271 296.866L335.305 296.858L336.335 296.85L337.362 296.843L338.386 296.836L339.405 296.828L340.422 296.82L341.435 296.813L342.445 296.806L343.452 296.799L344.454 296.791L345.454 296.784L346.45 296.776L347.443 296.769L348.432 296.762L349.417 296.755L350.4 296.748L351.378 296.741L352.354 296.733L353.326 296.726L354.294 296.719L355.259 296.712L356.22 296.705L357.178 296.698L358.133 296.691L359.084 296.684L360.031 296.677L360.975 296.67L361.916 296.663L362.853 296.657L363.787 296.65L364.717 296.643L365.644 296.636L366.567 296.629L367.486 296.623L368.402 296.616L369.315 296.609L370.224 296.603L371.13 296.596L372.032 296.589L372.931 296.583L373.826 296.576L374.717 296.57L375.605 296.563L376.49 296.557L377.371 296.55L378.248 296.544L379.122 296.537L379.992 296.531L380.86 296.525L381.723 296.519L382.583 296.512L383.439 296.506L384.292 296.5L385.141 296.493L385.987 296.487L386.828 296.481L387.667 296.475L388.502 296.469L389.334 296.463L390.161 296.456L390.985 296.451L391.806 296.445L392.623 296.439L393.437 296.433L394.247 296.427L395.054 296.421L395.856 296.415L396.656 296.409L397.451 296.404L398.244 296.398L399.032 296.392L399.817 296.386L400.598 296.38L401.376 296.375L402.15 296.369L402.921 296.363L403.687 296.358L404.451 296.352L405.21 296.347L405.967 296.341L406.719 296.336L407.468 296.33L408.213 296.324L408.955 296.319L409.693 296.314L410.428 296.309L411.158 296.303L411.885 296.298L412.609 296.293L413.329 296.287L414.045 296.282L414.758 296.277L415.467 296.272L416.172 296.266L416.874 296.261L417.572 296.256L418.266 296.251L418.957 296.246L419.644 296.241L420.328 296.236L421.007 296.231L421.683 296.226L422.356 296.221L423.025 296.216L423.69 296.212L424.351 296.206L425.009 296.202L425.663 296.197L426.313 296.192L426.96 296.188L427.603 296.183L428.242 296.178L428.878 296.174L429.51 296.169L430.138 296.164L430.763 296.16L431.384 296.155L432.001 296.151L432.614 296.146L433.224 296.142L433.83 296.137L434.433 296.133L435.031 296.128L435.626 296.124L436.217 296.12L436.805 296.116L437.389 296.111L437.969 296.107L438.545 296.103L439.118 296.099L439.686 296.094L440.252 296.09L440.813 296.086L441.371 296.082L441.924 296.078L442.475 296.074L443.021 296.07L443.564 296.066L444.103 296.062L444.638 296.058L445.169 296.055L445.697 296.05L446.221 296.047L446.741 296.043L447.257 296.039L447.77 296.035L448.278 296.032L448.783 296.028L449.285 296.025L449.782 296.02L450.276 296.017L450.766 296.013L451.252 296.01L451.734 296.006L452.213 296.003L452.687 295.999L453.158 295.996L453.626 295.992L454.089 295.989L454.548 295.986L455.004 295.982L455.456 295.979L455.904 295.976L456.349 295.972L456.789 295.969L457.226 295.966L457.659 295.963L458.088 295.96L458.513 295.957L458.934 295.954L459.352 295.951L459.766 295.948L460.176 295.945L460.582 295.942L460.984 295.939L461.382 295.936L461.777 295.933L462.167 295.93L462.554 295.927L462.937 295.924L463.316 295.922L463.692 295.919L464.063 295.916L464.431 295.914L464.794 295.911L465.154 295.908L465.51 295.905L465.862 295.903L466.211 295.901L466.555 295.898L466.895 295.895L467.232 295.893L467.565 295.891L467.893 295.888L468.218 295.886L468.539 295.884L468.857 295.881L469.17 295.879L469.479 295.877L469.785 295.874L470.086 295.872L470.384 295.87L470.678 295.868L470.968 295.866L471.254 295.864L471.536 295.861L471.814 295.86L472.088 295.857L472.358 295.856L472.624 295.854L472.887 295.851L473.145 295.85L473.4 295.848L473.65 295.846L473.897 295.844L474.14 295.843L474.379 295.841L474.614 295.839L474.845 295.837L475.071 295.836L475.294 295.834L475.514 295.833L475.729 295.831L475.94 295.829L476.147 295.828L476.35 295.826L476.55 295.825L476.745 295.823L476.936 295.822L477.124 295.821L477.307 295.819L477.486 295.818L477.662 295.817L477.833 295.816L478.001 295.814L478.164 295.813L478.324 295.812L478.479 295.811L478.631 295.81L478.778 295.809L478.922 295.807L479.061 295.806L479.197 295.806L479.328 295.805L479.456 295.804L479.579 295.803L479.699 295.802L479.814 295.801L479.926 295.8L480.033 295.799L480.136 295.799L480.236 295.798L480.331 295.797L480.422 295.796L480.51 295.796L480.593 295.795L480.672 295.795L480.747 295.794H480.818L480.885 295.793L480.948 295.793L481.007 295.792L481.062 295.792H481.113L481.16 295.791H481.203L481.242 295.79H481.276L481.307 295.79H481.333H481.356H481.374L481.388 295.789H481.399H481.405ZM481.411 453.648C481.801 453.199 481.8 453.199 481.799 453.198L481.792 453.192L481.767 453.172L481.761 453.167L481.708 453.124L481.668 453.091L481.593 453.032L481.509 452.964C481.442 452.911 481.364 452.848 481.274 452.777C480.925 452.5 480.403 452.09 479.71 451.555C478.324 450.485 476.254 448.919 473.513 446.926C468.031 442.939 459.865 437.247 449.12 430.418C427.63 416.759 395.825 398.553 354.549 380.347C271.998 343.935 151.561 307.526 0.00463867 307.526V308.7C151.357 308.7 271.623 345.059 354.047 381.415C395.26 399.593 427.011 417.77 448.456 431.399C459.178 438.214 467.324 443.892 472.786 447.864C475.518 449.85 477.579 451.411 478.956 452.473C479.644 453.005 480.162 453.411 480.506 453.685C480.679 453.822 480.808 453.925 480.894 453.995C480.928 454.022 480.956 454.044 480.976 454.061L480.99 454.072L481.014 454.091L481.02 454.096C481.02 454.096 481.021 454.097 481.05 454.064C481.09 454.018 481.185 453.909 481.411 453.648ZM481.67 387.392C481.672 387.393 481.673 387.393 481.411 387.923C481.15 388.452 481.15 388.452 481.148 388.451L481.143 388.448L481.119 388.438L481.022 388.393C480.936 388.354 480.807 388.295 480.634 388.217C480.493 388.153 480.322 388.077 480.122 387.988C480 387.933 479.868 387.874 479.724 387.811C479.53 387.725 479.316 387.63 479.083 387.528C477.706 386.924 475.644 386.037 472.912 384.907C467.448 382.648 459.301 379.419 448.576 375.544C427.127 367.793 395.369 357.456 354.147 347.119C271.702 326.444 151.402 305.765 0.00463867 305.765V304.592C151.516 304.592 271.919 325.285 354.45 345.983C395.716 356.331 427.514 366.68 449 374.444C459.742 378.326 467.907 381.561 473.388 383.828C476.128 384.96 478.197 385.851 479.582 386.459C480.275 386.762 480.797 386.996 481.146 387.153C481.244 387.198 481.328 387.236 481.399 387.268C481.454 387.293 481.501 387.315 481.539 387.332L481.639 387.377L481.664 387.389L481.67 387.392ZM481.411 335.107C481.524 334.531 481.524 334.53 481.522 334.53L481.516 334.529L481.491 334.525L481.392 334.507C481.305 334.491 481.174 334.467 481 334.436C480.652 334.374 480.132 334.281 479.44 334.161C478.057 333.92 475.989 333.566 473.251 333.117C467.775 332.218 459.614 330.933 448.877 329.392C427.401 326.31 395.614 322.201 354.36 318.092C271.853 309.875 151.481 301.658 0.00463867 301.658V302.831C151.436 302.831 271.767 311.046 354.236 319.26C395.471 323.366 427.241 327.473 448.699 330.553C459.429 332.093 467.58 333.376 473.049 334.274C475.783 334.723 477.846 335.076 479.226 335.316C479.642 335.388 479.996 335.451 480.288 335.502C480.479 335.536 480.643 335.566 480.78 335.59C480.953 335.621 481.083 335.645 481.169 335.66L481.266 335.678L481.29 335.682L481.296 335.684C481.298 335.684 481.298 335.684 481.411 335.107Z" fill="url(#paint0_linear_325_119)"/>
<defs>
<linearGradient id="paint0_linear_325_119" x1="7.2705" y1="221.252" x2="472.582" y2="221.252" gradientUnits="userSpaceOnUse">
<stop offset="0.0182341" stop-color="#035E71" stop-opacity="0"/>
<stop offset="0.127609" stop-color="#035E71" stop-opacity="0.8"/>
<stop offset="0.563305" stop-color="#035E71" stop-opacity="0.6"/>
<stop offset="0.943305" stop-color="#035E71" stop-opacity="0"/>
</linearGradient>
</defs>
</svg>
