<svg width="482" height="455" viewBox="0 0 482 455" fill="none" xmlns="http://www.w3.org/2000/svg">
<path fill-rule="evenodd" clip-rule="evenodd" d="M0.000157375 0.917223C-0.00135648 0.914875 -0.00214362 0.913115 0.516444 0.610309C1.03509 0.307501 1.03563 0.308087 1.0369 0.310434L1.04278 0.319828L1.06676 0.357973C1.08825 0.392597 1.12053 0.444229 1.1637 0.512303C1.25005 0.649625 1.3797 0.85385 1.55258 1.12438C1.89823 1.66545 2.41652 2.46882 3.10581 3.51808C4.48433 5.61544 6.5466 8.69338 9.2796 12.6123C14.7456 20.4495 22.894 31.6487 33.6188 45.0896C55.0692 71.9715 86.8227 107.814 128.034 143.655C210.461 215.343 330.675 286.987 481.923 286.987V288.16C330.264 288.16 209.773 216.322 127.225 144.529C85.9477 108.629 54.1447 72.7314 32.6608 45.8073C21.9185 32.3453 13.755 21.1255 8.27621 13.2695C5.53682 9.34125 3.46841 6.25449 2.08426 4.14835C1.39218 3.09557 0.871227 2.28749 0.52292 1.74232C0.348827 1.47002 0.217849 1.26346 0.130226 1.12438C0.0864457 1.05455 0.0535037 1.00231 0.031462 0.967104L0.00651439 0.927199L0.000157375 0.917223ZM0.0578048 87.2586C0.0562909 87.2568 0.0554435 87.2562 0.516444 86.8754C0.977385 86.4951 0.97908 86.4968 0.97908 86.4968L0.984887 86.5033L1.00869 86.5303L1.05077 86.5778L1.10527 86.6389C1.14209 86.6805 1.18678 86.7304 1.2394 86.7891L1.32351 86.883C1.37455 86.9399 1.43117 87.0027 1.49336 87.0714C1.83852 87.4534 2.35632 88.0214 3.04507 88.7632C4.42255 90.2461 6.4838 92.4233 9.21577 95.1949C14.6796 100.738 22.8258 108.66 33.5485 118.168C54.9944 137.185 86.7446 162.544 127.954 187.903C210.373 238.621 330.613 289.334 481.923 289.334V290.508C330.325 290.508 209.862 239.698 127.304 188.893C86.0258 163.492 54.2195 138.089 32.731 119.034C21.9865 109.507 13.821 101.566 8.33997 96.0054C5.59949 93.2249 3.5301 91.0395 2.14493 89.5484C1.45237 88.8025 0.930812 88.2304 0.582083 87.8442C0.407626 87.6511 0.276466 87.5044 0.188602 87.4059C0.1447 87.3566 0.111638 87.3196 0.0894141 87.2943L0.0642841 87.2662L0.0578048 87.2586ZM0.516444 146.733C0.126595 147.182 0.129017 147.184 0.129017 147.184L0.135496 147.189L0.160746 147.21L0.226206 147.263L0.260176 147.29C0.348161 147.361 0.479504 147.466 0.654085 147.604C1.00312 147.881 1.52492 148.291 2.21784 148.827C3.6035 149.896 5.67348 151.463 8.41446 153.455C13.8964 157.442 22.0627 163.134 32.8077 169.963C54.2974 183.622 86.1028 201.829 127.378 220.034C209.93 256.447 330.367 292.855 481.923 292.855V291.681C330.571 291.681 210.304 255.322 127.88 218.966C86.6677 200.789 54.9165 182.611 33.4718 168.982C22.7496 162.167 14.6042 156.489 9.14129 152.517C6.40987 150.531 4.3491 148.971 2.97216 147.908C2.28372 147.377 1.76623 146.97 1.42137 146.696C1.34737 146.638 1.2813 146.585 1.22323 146.538C1.14596 146.477 1.0828 146.426 1.03375 146.386C0.990761 146.352 0.958607 146.326 0.937413 146.309L0.913675 146.29L0.907929 146.285C0.907929 146.285 0.907263 146.284 0.895273 146.298C0.889581 146.304 0.881224 146.314 0.868932 146.328C0.846224 146.354 0.810194 146.395 0.752668 146.461L0.516444 146.733ZM0.257513 212.402V212.401C0.257513 212.401 0.258843 212.397 0.261084 212.392C0.265565 212.382 0.275195 212.362 0.295299 212.321C0.329573 212.251 0.394427 212.119 0.516444 211.872C0.634526 211.632 0.699319 211.501 0.735046 211.43C0.751699 211.396 0.761993 211.376 0.768472 211.363C0.774709 211.35 0.777247 211.346 0.778397 211.344L0.779433 211.343L0.785179 211.346L0.808977 211.357L0.905446 211.401C0.991433 211.44 1.12077 211.499 1.29329 211.577C1.63833 211.732 2.15607 211.964 2.84475 212.267C4.22212 212.87 6.28343 213.758 9.01552 214.887C14.4796 217.147 22.6268 220.375 33.3513 224.25C54.8003 232.001 86.5587 242.338 127.781 252.676C210.226 273.35 330.526 294.029 481.923 294.029V295.202C330.412 295.202 210.009 274.509 127.478 253.812C86.2117 243.463 54.4135 233.114 32.9282 225.35C22.1855 221.468 14.021 218.233 8.54023 215.967C5.79993 214.834 3.73055 213.943 2.34525 213.336C1.65263 213.032 1.131 212.798 0.782091 212.641C0.607695 212.562 0.476417 212.502 0.388492 212.463L0.289182 212.417L0.263992 212.405L0.257513 212.402ZM0.516444 264.1C0.434211 264.52 0.412168 264.634 0.4069 264.665C0.404902 264.677 0.405627 264.677 0.405627 264.677L0.411924 264.678L0.436752 264.683L0.535396 264.701C0.622839 264.717 0.75363 264.74 0.927603 264.771L1.09062 264.801L1.29129 264.837C1.40205 264.856 1.52322 264.878 1.65468 264.9C1.89739 264.943 2.17515 264.992 2.48785 265.047C3.87109 265.288 5.93853 265.641 8.67672 266.091C14.1532 266.99 22.3132 268.274 33.051 269.815C54.5267 272.897 86.3141 277.006 127.567 281.115C210.074 289.333 330.447 297.55 481.923 297.55V296.376C330.491 296.376 210.161 288.162 127.691 279.948C86.4564 275.841 54.6872 271.734 33.2285 268.654C22.4991 267.115 14.3474 265.832 8.87903 264.933C6.14482 264.484 4.08145 264.132 2.70215 263.892C2.01249 263.771 1.49379 263.679 1.14784 263.617C0.974835 263.587 0.845013 263.563 0.758481 263.547L0.661352 263.53L0.637245 263.525L0.631311 263.524C0.631311 263.524 0.630645 263.524 0.628162 263.535C0.6258 263.546 0.621446 263.567 0.613151 263.609L0.59474 263.702C0.577906 263.787 0.553018 263.913 0.516444 264.1ZM0.523043 295.789C0.523043 295.789 0.520985 295.789 0.516444 296.376C0.511841 296.963 0.5139 296.963 0.5139 296.963H0.520014H0.530188L0.54448 296.963H0.562887H0.585292H0.611812L0.642392 296.964H0.677029L0.715723 296.965H0.758481L0.805283 296.965H0.856215L0.911132 296.966L0.970118 296.966L1.03315 296.967H1.10025L1.17133 296.968L1.24648 296.968L1.32569 296.969L1.40902 296.969L1.49627 296.97L1.58758 296.971L1.6829 296.972L1.78227 296.972L1.88563 296.973L1.99312 296.974L2.10454 296.975L2.22001 296.975L2.33943 296.976L2.4629 296.977L2.59043 296.978L2.72195 296.979L2.85741 296.98L2.99692 296.981L3.14044 296.982L3.28795 296.983L3.43946 296.985L3.59496 296.986L3.75446 296.987L3.91795 296.988L4.08539 296.989L4.25688 296.99L4.4323 296.992L4.61173 296.993L4.79508 296.994L4.98244 296.996L5.1738 296.997L5.36908 296.999L5.56837 297L5.77159 297.002L5.9788 297.003L6.18993 297.005L6.40502 297.006L6.62411 297.007L6.84713 297.009L7.07409 297.011L7.30504 297.013L7.53993 297.015L7.7787 297.016L8.02146 297.018L8.26816 297.02L8.51879 297.022L8.7733 297.023L9.03181 297.025L9.29419 297.027L9.56057 297.029L9.83082 297.031L10.105 297.033L10.3831 297.035L10.6651 297.037L10.9511 297.039L11.2409 297.042L11.5346 297.044L11.8323 297.046L12.1339 297.048L12.4394 297.05L12.7487 297.053L13.062 297.055L13.3791 297.057L13.7002 297.059L14.0251 297.062L14.3539 297.064L14.6867 297.067L15.0232 297.069L15.3637 297.071L15.7081 297.074L16.0563 297.077L16.4084 297.079L16.7644 297.082L17.1242 297.084L17.4879 297.087L17.8555 297.09L18.2269 297.093L18.6022 297.096L18.9814 297.098L19.3644 297.101L19.7512 297.104L20.1419 297.107L20.5364 297.11L20.9348 297.113L21.337 297.115L21.7431 297.118L22.153 297.121L22.5667 297.124L22.9842 297.127L23.4057 297.13L23.8309 297.134L24.2599 297.137L24.6928 297.14L25.1295 297.143L25.57 297.146L26.0143 297.15L26.4624 297.153L26.9144 297.156L27.3701 297.159L27.8297 297.163L28.293 297.166L28.7602 297.169L29.2311 297.173L29.7059 297.177L30.1844 297.18L30.6667 297.184L31.1528 297.187L31.6428 297.191L32.1365 297.194L32.6339 297.198L33.1352 297.202L33.6402 297.205L34.149 297.209L34.6616 297.213L35.1779 297.216L35.698 297.22L36.2219 297.224L36.7495 297.228L37.2809 297.232L37.816 297.236L38.355 297.24L38.8976 297.244L39.444 297.247L39.9941 297.252L40.5481 297.256L41.1057 297.26L41.6671 297.264L42.2322 297.268L42.801 297.272L43.3736 297.276L43.9499 297.281L44.5299 297.285L45.1137 297.289L45.7012 297.293L46.2924 297.298L46.8873 297.302L47.486 297.307L48.0883 297.311L48.6944 297.316L49.3042 297.32L49.9176 297.324L50.5348 297.329L51.1557 297.333L51.7803 297.338L52.4085 297.343L53.0405 297.347L53.6762 297.352L54.3155 297.357L54.9585 297.361L55.6053 297.366L56.2557 297.371L56.9098 297.375L57.5675 297.38L58.229 297.385L58.8941 297.39L59.5628 297.395L60.2353 297.399L60.9116 297.405L61.591 297.409L62.2746 297.415L62.9619 297.419L63.6523 297.425L64.3468 297.43L65.045 297.435L65.7468 297.44L66.4517 297.445L67.1608 297.451L67.8735 297.456L68.5899 297.461L69.3098 297.466L70.0335 297.472L70.7601 297.477L71.491 297.482L72.2255 297.488L72.9637 297.493L73.7055 297.498L74.4503 297.504L75.1993 297.509L75.952 297.515L76.7084 297.52L77.4677 297.526L78.2313 297.532L78.9979 297.537L79.7688 297.543L80.5427 297.549L81.3208 297.554L82.1019 297.56L82.8867 297.566L83.6751 297.571L84.4672 297.577L85.2629 297.583L86.0622 297.588L86.8651 297.594L87.6717 297.6L88.4813 297.607L89.2952 297.613L90.1121 297.618L90.9332 297.624L91.7573 297.63L92.5851 297.637L93.4165 297.642L94.2515 297.648L95.0902 297.655L95.9319 297.661L96.7779 297.667L97.6268 297.674L98.4794 297.679L99.3357 297.686L100.196 297.692L101.059 297.698L101.926 297.705L102.796 297.711L103.67 297.718L104.548 297.724L105.429 297.73L106.313 297.737L107.201 297.743L108.093 297.75L108.988 297.756L109.887 297.763L110.789 297.77L111.694 297.776L112.604 297.783L113.516 297.79L114.432 297.796L115.352 297.803L116.275 297.81L117.202 297.816L118.132 297.823L119.065 297.83L120.002 297.837L120.943 297.844L121.887 297.851L122.835 297.858L123.786 297.865L124.74 297.871L125.698 297.878L126.66 297.885L127.625 297.892L128.593 297.899L129.565 297.907L130.541 297.914L131.519 297.921L132.501 297.928L133.487 297.935L134.476 297.943L135.468 297.95L136.465 297.958L137.464 297.965L138.467 297.972L139.473 297.979L140.484 297.987L141.497 297.994L142.513 298.002L143.533 298.009L144.557 298.016L145.583 298.024L146.614 298.032L147.648 298.039L148.685 298.047L149.726 298.054L150.77 298.062L151.817 298.07L152.868 298.077L153.922 298.085L154.98 298.093L156.041 298.101L157.106 298.108L158.173 298.116L159.244 298.124L160.319 298.132L161.397 298.139L162.479 298.148L163.564 298.155L164.652 298.164L165.743 298.171L166.839 298.179L167.936 298.188L169.039 298.196L170.144 298.203L171.252 298.212L172.364 298.22L173.479 298.228L174.597 298.236L175.719 298.245L176.845 298.253L177.973 298.261L179.105 298.269L180.24 298.277L181.379 298.286L182.521 298.294L183.666 298.303L184.815 298.311L185.967 298.32L187.122 298.328L188.281 298.336L189.443 298.345L190.608 298.353L191.777 298.362L192.949 298.371L194.124 298.379L195.303 298.388L196.485 298.397L197.67 298.405L198.858 298.414L200.05 298.422L201.246 298.431L202.444 298.44L203.645 298.449L204.85 298.458L206.059 298.466L207.271 298.475L208.485 298.484L209.704 298.493L210.925 298.502L212.15 298.511L213.378 298.52L214.609 298.529L215.844 298.538L217.082 298.547L218.323 298.556L219.567 298.565L220.815 298.574L222.066 298.583L223.32 298.593L224.578 298.602L225.838 298.611L227.102 298.62L228.37 298.629L229.64 298.639L230.913 298.648L232.191 298.658L233.471 298.667L234.754 298.676L236.041 298.686L237.331 298.695L238.624 298.705L239.92 298.714L241.22 298.723L242.523 298.733L243.829 298.743L245.138 298.752L246.451 298.762L247.766 298.772L249.085 298.781L250.407 298.791L251.733 298.8L253.061 298.81L254.393 298.82L255.728 298.83L257.066 298.84L258.408 298.849L259.752 298.859L261.1 298.869L262.451 298.879L263.805 298.889L265.162 298.899L266.522 298.909L267.886 298.919L269.253 298.929L270.623 298.939L271.996 298.949L273.372 298.959L274.752 298.969L276.135 298.979L277.52 298.989L278.909 298.999L280.302 299.009L281.697 299.02L283.096 299.03L284.497 299.04L285.902 299.05L287.31 299.061L288.72 299.071L290.135 299.081L291.552 299.092L292.973 299.102L294.396 299.112L295.823 299.123L297.253 299.134L298.685 299.144L300.122 299.154L301.561 299.165L303.003 299.175L304.449 299.186L305.897 299.196L307.349 299.207L308.803 299.218L310.261 299.229L311.723 299.239L313.187 299.25L314.653 299.26L316.124 299.271L317.598 299.282L319.074 299.293L320.553 299.304L322.036 299.314L323.522 299.326L325.011 299.336L326.503 299.347L327.997 299.358L329.495 299.369L330.996 299.38L332.501 299.391L334.008 299.402L335.518 299.413L337.032 299.424L338.548 299.435L340.067 299.446L341.59 299.458L343.116 299.469L344.644 299.48L346.176 299.491L347.711 299.502L349.249 299.514L350.79 299.525L352.333 299.536L353.88 299.547L355.43 299.559L356.983 299.57L358.539 299.581L360.098 299.593L361.66 299.604L363.225 299.616L364.794 299.627L366.364 299.639L367.939 299.651L369.516 299.662L371.096 299.673L372.679 299.685L374.265 299.696L375.854 299.708L377.446 299.72L379.042 299.732L380.64 299.743L382.241 299.755L383.845 299.767L385.452 299.779L387.062 299.79L388.676 299.802L390.292 299.814L391.91 299.825L393.533 299.838L395.158 299.85L396.786 299.861L398.416 299.873L400.051 299.885L401.687 299.897L403.327 299.909L404.97 299.921L406.615 299.933L408.264 299.945L409.916 299.958L411.57 299.969L413.228 299.982L414.889 299.994L416.552 300.006L418.218 300.018L419.888 300.03L421.56 300.043L423.235 300.055L424.913 300.067L426.594 300.08L428.278 300.092L429.965 300.104L431.655 300.117L433.348 300.129L435.043 300.141L436.742 300.154L438.443 300.166L440.148 300.179L441.855 300.191L443.565 300.203L445.278 300.216L446.994 300.229L448.713 300.241L450.435 300.254L452.159 300.266L453.887 300.279L455.617 300.291L457.351 300.304L459.087 300.317L460.826 300.33L462.568 300.342L464.313 300.355L466.06 300.368L467.811 300.381L469.565 300.394L471.321 300.406L473.08 300.419L474.842 300.432L476.606 300.445L478.375 300.458L480.145 300.471L481.918 300.484L481.927 299.31L480.154 299.297L478.384 299.284L476.616 299.271L474.851 299.259L473.089 299.246L471.33 299.233L469.574 299.22L467.82 299.207L466.069 299.195L464.322 299.182L462.577 299.169L460.835 299.156L459.096 299.144L457.36 299.131L455.626 299.118L453.896 299.105L452.169 299.093L450.444 299.08L448.722 299.067L447.003 299.055L445.287 299.043L443.574 299.03L441.864 299.017L440.157 299.005L438.452 298.992L436.751 298.98L435.052 298.967L433.357 298.955L431.664 298.943L429.974 298.931L428.287 298.918L426.603 298.906L424.922 298.894L423.244 298.881L421.569 298.869L419.897 298.857L418.227 298.844L416.561 298.832L414.898 298.82L413.238 298.808L411.58 298.796L409.925 298.784L408.273 298.772L406.625 298.76L404.979 298.747L403.336 298.736L401.697 298.723L400.06 298.712L398.425 298.699L396.795 298.688L395.167 298.676L393.542 298.664L391.919 298.652L390.301 298.64L388.685 298.628L387.072 298.617L385.461 298.605L383.854 298.593L382.25 298.581L380.649 298.57L379.051 298.558L377.455 298.546L375.863 298.534L374.275 298.523L372.688 298.512L371.105 298.5L369.525 298.488L367.948 298.477L366.373 298.465L364.803 298.453L363.234 298.442L361.67 298.431L360.107 298.419L358.549 298.408L356.992 298.397L355.439 298.385L353.89 298.374L352.342 298.362L350.799 298.351L349.258 298.34L347.72 298.328L346.185 298.317L344.654 298.306L343.125 298.295L341.599 298.284L340.077 298.273L338.557 298.262L337.041 298.25L335.528 298.24L334.017 298.229L332.51 298.218L331.005 298.206L329.504 298.195L328.007 298.185L326.512 298.174L325.02 298.163L323.531 298.152L322.045 298.141L320.562 298.13L319.083 298.12L317.607 298.108L316.133 298.098L314.663 298.087L313.196 298.076L311.732 298.066L310.27 298.055L308.813 298.044L307.358 298.033L305.906 298.023L304.458 298.012L303.012 298.002L301.57 297.991L300.131 297.98L298.695 297.97L297.262 297.96L295.832 297.949L294.405 297.939L292.982 297.928L291.561 297.918L290.144 297.908L288.73 297.897L287.319 297.887L285.911 297.877L284.506 297.867L283.105 297.856L281.706 297.846L280.311 297.836L278.918 297.826L277.529 297.816L276.144 297.805L274.761 297.795L273.381 297.785L272.005 297.775L270.632 297.765L269.262 297.755L267.895 297.745L266.531 297.735L265.171 297.725L263.814 297.715L262.46 297.705L261.109 297.695L259.761 297.685L258.417 297.675L257.075 297.666L255.737 297.656L254.402 297.646L253.07 297.637L251.742 297.627L250.417 297.617L249.094 297.607L247.775 297.598L246.46 297.588L245.147 297.578L243.838 297.569L242.532 297.559L241.229 297.55L239.929 297.54L238.633 297.531L237.34 297.522L236.05 297.512L234.764 297.503L233.48 297.493L232.2 297.484L230.923 297.475L229.649 297.465L228.379 297.456L227.111 297.446L225.848 297.438L224.587 297.428L223.329 297.419L222.075 297.41L220.824 297.401L219.577 297.391L218.332 297.382L217.091 297.373L215.853 297.364L214.618 297.355L213.387 297.346L212.159 297.337L210.934 297.328L209.713 297.319L208.494 297.31L207.28 297.301L206.068 297.293L204.859 297.284L203.654 297.275L202.453 297.266L201.255 297.257L200.059 297.249L198.868 297.24L197.679 297.231L196.494 297.223L195.312 297.214L194.133 297.205L192.958 297.197L191.786 297.188L190.617 297.179L189.452 297.171L188.29 297.162L187.132 297.154L185.976 297.146L184.824 297.137L183.675 297.129L182.53 297.121L181.388 297.112L180.25 297.104L179.114 297.096L177.982 297.087L176.854 297.079L175.729 297.071L174.606 297.063L173.488 297.054L172.373 297.046L171.261 297.038L170.153 297.03L169.048 297.022L167.946 297.014L166.848 297.006L165.753 296.998L164.661 296.99L163.573 296.982L162.488 296.974L161.406 296.966L160.328 296.958L159.254 296.951L158.182 296.942L157.115 296.935L156.05 296.927L154.989 296.919L153.931 296.911L152.877 296.904L151.827 296.896L150.779 296.888L149.735 296.881L148.694 296.873L147.657 296.865L146.623 296.858L145.593 296.85L144.566 296.843L143.542 296.836L142.522 296.828L141.506 296.82L140.493 296.813L139.483 296.806L138.476 296.799L137.473 296.791L136.474 296.784L135.478 296.776L134.485 296.769L133.496 296.762L132.51 296.755L131.528 296.748L130.55 296.74L129.574 296.733L128.602 296.726L127.634 296.719L126.669 296.712L125.708 296.705L124.75 296.698L123.795 296.691L122.844 296.684L121.896 296.677L120.952 296.67L120.012 296.663L119.075 296.657L118.141 296.65L117.211 296.643L116.284 296.636L115.361 296.629L114.442 296.623L113.525 296.616L112.613 296.609L111.703 296.603L110.798 296.596L109.896 296.589L108.997 296.583L108.102 296.576L107.211 296.57L106.322 296.563L105.438 296.557L104.557 296.55L103.679 296.544L102.805 296.537L101.935 296.531L101.068 296.525L100.205 296.519L99.3448 296.512L98.4885 296.506L97.6359 296.5L96.7869 296.493L95.941 296.487L95.0993 296.481L94.2606 296.475L93.4256 296.469L92.5942 296.463L91.7664 296.456L90.9423 296.451L90.1217 296.445L89.3043 296.439L88.491 296.433L87.6808 296.427L86.8742 296.421L86.0713 296.415L85.272 296.409L84.4763 296.404L83.6842 296.398L82.8958 296.392L82.111 296.386L81.3299 296.38L80.5517 296.375L79.7779 296.369L79.007 296.363L78.2404 296.358L77.4768 296.352L76.7174 296.347L75.9611 296.341L75.2084 296.336L74.46 296.33L73.7146 296.324L72.9728 296.319L72.2346 296.314L71.5001 296.309L70.7698 296.303L70.0425 296.298L69.3189 296.293L68.5989 296.287L67.8826 296.282L67.1699 296.277L66.4608 296.272L65.7559 296.266L65.0541 296.261L64.3559 296.256L63.6613 296.251L62.971 296.246L62.2837 296.241L61.6001 296.236L60.9207 296.231L60.2444 296.226L59.572 296.221L58.9032 296.216L58.2381 296.212L57.5767 296.206L56.9189 296.202L56.2648 296.197L55.6145 296.192L54.9677 296.188L54.3247 296.183L53.6853 296.178L53.0496 296.174L52.4177 296.169L51.7894 296.164L51.1648 296.16L50.5439 296.155L49.9268 296.151L49.3133 296.146L48.7035 296.142L48.0974 296.137L47.4951 296.133L46.8965 296.128L46.3015 296.124L45.7103 296.12L45.1228 296.115L44.5391 296.111L43.959 296.107L43.3827 296.103L42.8101 296.098L42.2413 296.094L41.6762 296.09L41.1148 296.086L40.5572 296.082L40.0033 296.078L39.4532 296.074L38.9067 296.07L38.3641 296.066L37.8252 296.062L37.2901 296.058L36.7587 296.054L36.231 296.05L35.7071 296.047L35.1871 296.043L34.6707 296.039L34.1581 296.035L33.6494 296.032L33.1443 296.028L32.6431 296.025L32.1456 296.02L31.6519 296.017L31.162 296.013L30.6759 296.01L30.1935 296.006L29.715 296.003L29.2403 295.999L28.7694 295.996L28.3022 295.992L27.8388 295.989L27.3793 295.986L26.9235 295.982L26.4716 295.979L26.0235 295.976L25.5791 295.972L25.1386 295.969L24.7019 295.966L24.2691 295.963L23.84 295.96L23.4148 295.957L22.9934 295.954L22.5759 295.951L22.1621 295.948L21.7522 295.945L21.3461 295.942L20.9439 295.939L20.5455 295.936L20.151 295.933L19.7603 295.93L19.3734 295.927L18.9904 295.924L18.6113 295.922L18.2361 295.919L17.8646 295.916L17.4971 295.914L17.1334 295.911L16.7735 295.908L16.4175 295.905L16.0654 295.903L15.7172 295.901L15.3729 295.898L15.0324 295.895L14.6958 295.893L14.3631 295.891L14.0343 295.888L13.7093 295.886L13.3883 295.884L13.0711 295.881L12.7578 295.879L12.4485 295.877L12.143 295.874L11.8415 295.872L11.5438 295.87L11.25 295.868L10.9602 295.866L10.6742 295.864L10.3922 295.861L10.1142 295.86L9.83996 295.857L9.56965 295.856L9.30333 295.854L9.04095 295.851L8.78244 295.85L8.52787 295.848L8.2773 295.846L8.0306 295.844L7.78784 295.843L7.54901 295.841L7.31418 295.839L7.08323 295.837L6.85627 295.836L6.63325 295.834L6.41417 295.833L6.19908 295.831L5.98794 295.829L5.78073 295.828L5.57751 295.826L5.37823 295.825L5.18294 295.823L4.99159 295.822L4.80423 295.821L4.62081 295.819L4.44145 295.818L4.26596 295.817L4.09459 295.816L3.92704 295.814L3.76361 295.813L3.60411 295.812L3.4486 295.811L3.2971 295.81L3.14959 295.809L3.00607 295.807L2.86655 295.806L2.73104 295.806L2.59957 295.804L2.47211 295.804L2.34857 295.803L2.2291 295.802L2.11369 295.801L2.0022 295.8L1.89484 295.799L1.79142 295.799L1.69205 295.798L1.59673 295.797L1.50536 295.796L1.41809 295.796L1.33489 295.795L1.25563 295.794L1.18048 295.794H1.10933L1.04229 295.793L0.979256 295.793L0.920276 295.792L0.865299 295.792H0.814433L0.767625 295.791H0.724873L0.686179 295.79H0.651481L0.620962 295.79H0.594437H0.57203H0.553622L0.539393 295.789H0.529159H0.523043ZM0.516444 453.648C0.126595 453.199 0.129017 453.198 0.129017 453.198L0.135496 453.192L0.160746 453.172L0.16668 453.167L0.220029 453.124L0.260176 453.091L0.334416 453.032L0.418769 452.964C0.485681 452.911 0.564159 452.848 0.654085 452.777C1.00312 452.5 1.52492 452.09 2.21784 451.555C3.6035 450.485 5.67343 448.919 8.41446 446.926C13.8964 442.939 22.0627 437.247 32.8077 430.418C54.2974 416.759 86.1028 398.553 127.378 380.347C209.93 343.934 330.367 307.526 481.923 307.526V308.7C330.571 308.7 210.304 345.059 127.88 381.415C86.6677 399.593 54.9165 417.77 33.4718 431.399C22.7496 438.214 14.6042 443.892 9.14129 447.864C6.40987 449.85 4.3491 451.411 2.97216 452.473C2.28372 453.005 1.76623 453.411 1.42137 453.685C1.24891 453.822 1.11962 453.925 1.03375 453.995C0.999239 454.022 0.971747 454.044 0.95128 454.061L0.937413 454.072L0.913675 454.091L0.907929 454.096C0.907929 454.096 0.907081 454.097 0.878015 454.064C0.837807 454.018 0.742676 453.909 0.516444 453.648ZM0.257513 387.392C0.257513 387.392 0.255091 387.393 0.516444 387.923C0.777737 388.452 0.779433 388.451 0.779433 388.451L0.785179 388.448L0.808977 388.438L0.905446 388.393C0.991433 388.354 1.12077 388.295 1.29329 388.217C1.43493 388.153 1.60563 388.077 1.80534 387.988C1.92735 387.933 2.06021 387.874 2.20385 387.811C2.3978 387.725 2.61144 387.63 2.84475 387.528C4.22212 386.924 6.28343 386.036 9.01552 384.907C14.4796 382.648 22.6268 379.419 33.3513 375.544C54.8003 367.793 86.5587 357.456 127.781 347.119C210.226 326.444 330.526 305.765 481.923 305.765V304.592C330.412 304.592 210.009 325.285 127.478 345.983C86.2117 356.331 54.4135 366.68 32.9282 374.444C22.1855 378.326 14.021 381.561 8.54023 383.828C5.79993 384.96 3.73055 385.851 2.34525 386.459C1.65263 386.762 1.131 386.996 0.782091 387.153C0.683932 387.198 0.599462 387.236 0.528674 387.268C0.47363 387.293 0.426944 387.315 0.388492 387.332L0.289182 387.377L0.263992 387.389L0.257513 387.392ZM0.516444 335.107C0.403389 334.531 0.405627 334.53 0.405627 334.53L0.411924 334.529L0.436752 334.525L0.535396 334.507C0.622839 334.491 0.75363 334.467 0.927603 334.436C1.27555 334.374 1.7962 334.281 2.48785 334.161C3.87109 333.92 5.93853 333.566 8.67672 333.117C14.1532 332.218 22.3132 330.933 33.051 329.392C54.5267 326.31 86.3141 322.201 127.567 318.092C210.074 309.874 330.447 301.658 481.923 301.658V302.831C330.491 302.831 210.161 311.046 127.691 319.26C86.4564 323.366 54.6872 327.473 33.2285 330.553C22.4991 332.093 14.3474 333.376 8.87903 334.274C6.14482 334.723 4.08145 335.076 2.70215 335.316C2.28559 335.388 1.93142 335.451 1.63997 335.502C1.44892 335.536 1.28481 335.566 1.14784 335.59C0.974835 335.621 0.845013 335.645 0.758481 335.66L0.661352 335.678L0.637245 335.682L0.631311 335.684C0.631311 335.684 0.62944 335.684 0.516444 335.107Z" fill="url(#paint0_linear_325_108)"/>
<defs>
<linearGradient id="paint0_linear_325_108" x1="474.657" y1="221.252" x2="9.34555" y2="221.252" gradientUnits="userSpaceOnUse">
<stop offset="0.0182341" stop-color="#035E71" stop-opacity="0"/>
<stop offset="0.127609" stop-color="#035E71" stop-opacity="0.8"/>
<stop offset="0.563305" stop-color="#035E71" stop-opacity="0.6"/>
<stop offset="0.943305" stop-color="#035E71" stop-opacity="0"/>
</linearGradient>
</defs>
</svg>
