<svg width="11" height="13" viewBox="0 0 11 13" fill="none" xmlns="http://www.w3.org/2000/svg">
<path opacity="0.2" d="M0.46875 7.5C0.46875 8.7432 0.96261 9.93549 1.84169 10.8146C2.72076 11.6936 3.91305 12.1875 5.15625 12.1875C6.39945 12.1875 7.59174 11.6936 8.47081 10.8146C9.34989 9.93549 9.84375 8.7432 9.84375 7.5C9.84375 5.70879 8.99883 4.08633 8.02734 2.8125L6.09375 4.6875L4.55449 0.46875C3.28945 1.51875 0.46875 4.22754 0.46875 7.5Z" fill="url(#paint0_linear_714_20)"/>
<path d="M4.25508 0.108304C4.31286 0.060261 4.38135 0.0268155 4.45477 0.0107869C4.52819 -0.00524179 4.60439 -0.00338376 4.67694 0.0162042C4.74949 0.0357922 4.81626 0.0725361 4.87164 0.123338C4.92701 0.17414 4.96936 0.237511 4.99512 0.308108L6.28418 3.84776L7.6998 2.47608C7.74735 2.42997 7.80412 2.39445 7.86638 2.37188C7.92865 2.3493 7.99499 2.34018 8.06103 2.34511C8.12708 2.35003 8.19133 2.3689 8.24956 2.40046C8.30778 2.43203 8.35865 2.47557 8.39883 2.52823C9.66797 4.19112 10.3125 5.86397 10.3125 7.49991C10.3125 8.86743 9.76925 10.1789 8.80227 11.1459C7.83528 12.1129 6.52377 12.6562 5.15625 12.6562C3.78873 12.6562 2.47721 12.1129 1.51023 11.1459C0.543246 10.1789 0 8.86743 0 7.49991C0 4.01651 2.97598 1.17178 4.25508 0.108304ZM5.15625 11.7187C6.27475 11.7174 7.34709 11.2725 8.13799 10.4816C8.92889 9.69074 9.37376 8.61841 9.375 7.49991C9.375 6.21084 8.90098 4.87549 7.96523 3.52491L6.42012 5.02373C6.364 5.07823 6.29514 5.11782 6.21981 5.13889C6.14448 5.15996 6.06508 5.16184 5.98883 5.14437C5.91259 5.12689 5.84193 5.09062 5.78329 5.03884C5.72465 4.98707 5.67991 4.92145 5.65313 4.84795L4.34824 1.26963C3.03457 2.46553 0.9375 4.79932 0.9375 7.49991C0.938741 8.61841 1.38361 9.69074 2.17451 10.4816C2.96541 11.2725 4.03775 11.7174 5.15625 11.7187Z" fill="url(#paint1_linear_714_20)"/>
<defs>
<linearGradient id="paint0_linear_714_20" x1="9.84375" y1="6.32812" x2="0.46875" y2="6.32812" gradientUnits="userSpaceOnUse">
<stop stop-color="#035E71"/>
<stop offset="0.283654" stop-color="#5DA9B9"/>
<stop offset="0.769231" stop-color="#035E71"/>
</linearGradient>
<linearGradient id="paint1_linear_714_20" x1="10.3125" y1="6.32808" x2="0" y2="6.32808" gradientUnits="userSpaceOnUse">
<stop stop-color="#035E71"/>
<stop offset="0.283654" stop-color="#5DA9B9"/>
<stop offset="0.769231" stop-color="#035E71"/>
</linearGradient>
</defs>
</svg>
