<svg width="17" height="20" viewBox="0 0 17 20" fill="none" xmlns="http://www.w3.org/2000/svg">
<path opacity="0.2" d="M0.740739 11.8519C0.740739 13.8165 1.52117 15.7006 2.91033 17.0898C4.2995 18.479 6.18362 19.2594 8.1482 19.2594C10.1128 19.2594 11.9969 18.479 13.3861 17.0898C14.7752 15.7006 15.5557 13.8165 15.5557 11.8519C15.5557 9.02134 14.2205 6.45743 12.6853 4.44445L9.62969 7.40744L7.19727 0.740723C5.19818 2.39999 0.740739 6.68058 0.740739 11.8519Z" fill="white"/>
<path d="M6.72458 0.171148C6.8159 0.0952279 6.92413 0.0423754 7.04015 0.017046C7.15617 -0.00828339 7.27658 -0.00534721 7.39123 0.0256069C7.50588 0.056561 7.6114 0.114626 7.69891 0.194906C7.78641 0.275186 7.85334 0.375329 7.89403 0.486891L9.93109 6.08045L12.1681 3.91284C12.2433 3.83998 12.333 3.78386 12.4314 3.74818C12.5298 3.71251 12.6346 3.69809 12.739 3.70587C12.8433 3.71366 12.9449 3.74348 13.0369 3.79335C13.1289 3.84323 13.2093 3.91204 13.2728 3.99525C15.2783 6.62305 16.2969 9.26659 16.2969 11.8518C16.2969 14.0128 15.4384 16.0854 13.9103 17.6134C12.3822 19.1415 10.3097 20 8.14867 20C5.98763 20 3.9151 19.1415 2.38701 17.6134C0.858927 16.0854 0.000457764 14.0128 0.000457764 11.8518C0.000457764 6.34712 4.70327 1.85172 6.72458 0.171148ZM8.14867 18.5185C9.91619 18.5165 11.6108 17.8135 12.8606 16.5637C14.1104 15.3139 14.8134 13.6193 14.8154 11.8518C14.8154 9.81474 14.0663 7.70454 12.5876 5.57026L10.1459 7.9388C10.0572 8.02492 9.94841 8.08747 9.82937 8.12077C9.71033 8.15407 9.58485 8.15705 9.46436 8.12943C9.34387 8.10182 9.23221 8.04449 9.13955 7.96268C9.04689 7.88086 8.97618 7.77716 8.93386 7.66102L6.87181 2.00635C4.79586 3.89618 1.48195 7.58417 1.48195 11.8518C1.48391 13.6193 2.18692 15.3139 3.43675 16.5637C4.68658 17.8135 6.38114 18.5165 8.14867 18.5185Z" fill="white"/>
</svg>
